<?xml version="1.0" encoding="utf-8"?>
<!-- Generator: Adobe Illustrator 23.0.1, SVG Export Plug-In . SVG Version: 6.00 Build 0)  -->
<svg version="1.1" id="Layer_1" xmlns="http://www.w3.org/2000/svg" xmlns:xlink="http://www.w3.org/1999/xlink" x="0px" y="0px"
	 viewBox="0 0 1853.8 1025" style="enable-background:new 0 0 1853.8 1025;" xml:space="preserve">
<style type="text/css">
	.st0{fill:#AD0921;}
</style>
<g>
	<path class="st0" d="M241.8,906.5c-2.6-0.5-5.3-0.9-7.9-1.6c-25.9-6.9-45.9-30.6-48.4-57.3c-0.3-3.2-0.5-6.4-0.5-9.5
		c0-127.6,0-255.1-0.1-382.7c0-2.4,0.7-4.1,2.4-5.8c103.8-102.9,208.5-205.1,314.3-305.9c6.7-6.4,13.3-12.9,21.6-17.4
		c23.7-12.8,58.6-10.5,81.1,12.2c11.7,11.9,24.7,22.5,37.2,33.6c55.6,49.4,111,98.8,164.7,150.3c0.7,0.7,1.4,1.3,2.5,2.3
		c-1.2,0.1-1.9,0.3-2.6,0.3c-30.2,0-60.3,0-90.5-0.1c-1.3,0-2.9-0.6-3.8-1.4c-50.3-44.8-100.5-89.7-150.7-134.6
		c-5.6-5-5.6-5.2-11.1,0.1c-48.8,47-97.7,93.9-146.3,141.1c-50.1,48.8-99.9,98-149.9,146.9c-1.8,1.8-2.5,3.6-2.5,6.1
		c0.1,117.6,0,235.2,0,352.8c0,1.2,0,2.5,0,4.1c1.3,0,2.3,0,3.3,0c200.5,0,401,0,601.6,0c1.5,0,3.1,0.5,3.8-1.7
		c0.1-0.3,1.2-0.4,1.9-0.4c20.7,0,41.4,0,62,0c0.6,0,1.1,0.1,1.8,0.2c0.5,7.7-0.5,15.2-2.9,22.3c-7.4,22-22.2,36.7-44.2,44
		c-3.1,1-6.4,1.4-9.6,2C660.1,906.5,450.9,906.5,241.8,906.5z"/>
	<path class="st0" d="M1668.8,632.8c-2.1,4.6-4.4,9.2-6.4,13.8c-18,40.9-35.9,81.8-54.2,122.6c-3,6.7-7.1,13.1-11.6,18.9
		c-7.4,9.3-17.6,13.5-29.4,14.1c-11.2,0.5-21.7-1.5-31.2-7.7c-7.8-5.1-7.7-5.1-3.3-13c2.9-5.1,5.8-10.2,8.9-15.6
		c1.4,1.3,2.7,2.5,3.9,3.7c6.3,5.6,13.7,8.2,22.2,6.8c4.4-0.7,7.9-3,10-6.7c2.8-4.8,5.2-9.9,7.6-14.9c0.4-0.8-0.1-2.2-0.6-3.2
		c-16.9-38.4-33.9-76.8-50.9-115.2c-0.5-1.2-1-2.4-1.6-4c7.5,0,14.7,0.6,21.7-0.2c6.7-0.7,9.5,1.9,12,7.9
		c10.9,26,22.4,51.7,33.6,77.5c0.4,1,0.9,1.9,1.5,3.4c0.6-1.3,1.1-2.1,1.5-3c11.9-27.6,23.9-55.3,35.7-82.9c0.9-2.2,2-2.8,4.3-2.8
		c8.7,0.1,17.4,0,26.1,0C1668.8,632.5,1668.8,632.7,1668.8,632.8z"/>
	<path class="st0" d="M781.9,561.4c-12.9,0-25.5,0-38.7,0c0-23.1,0-46.1,0-69.2c-25.9,0-51.2,0-77,0c0,23,0,46,0,69.2
		c-13.2,0-26,0-39,0c0-56.3,0-112.5,0-168.9c12.8,0,25.6,0,38.8,0c0,22,0,44.1,0,66.4c25.8,0,51.4,0,77.3,0c0-22.2,0-44.2,0-66.5
		c13.1,0,25.8,0,38.7,0C781.9,448.7,781.9,505,781.9,561.4z"/>
	<path class="st0" d="M938.7,757.6c-9.7,0-19.1,0-28.6,0c0-41.8,0-83.4,0-125.1c9.2,0,18.2,0,27.6,0c0,3.6,0,7.2,0,11.5
		c12.4-10.1,26.2-13.4,41-12.6c15,0.8,28,6.1,37.4,18.7c0.6-0.5,1-0.8,1.4-1.3c17-18.6,48-21.8,68.2-12.8
		c15.5,6.9,23.4,19.5,26.4,35.7c0.8,4.3,1.2,8.8,1.2,13.2c0.1,23.4,0.1,46.8,0.1,70.1c0,0.8-0.1,1.5-0.1,2.7c-1.4,0-2.7,0-4,0
		c-6.7,0-13.3,0-20,0c-5.2,0-4.5,0.6-4.6-4.7c0-21,0.1-41.9-0.1-62.9c0-4.3-0.3-8.7-1.2-12.9c-2.7-12.4-10.3-18.6-22.9-19.5
		c-19.7-1.3-33.5,10.5-34,30.2c-0.6,21.7-0.3,43.5-0.3,65.2c0,0.9,0.2,1.8-0.1,2.6c-0.3,0.8-1.1,1.9-1.7,1.9c-8.7,0.1-17.4,0-26.1,0
		c-0.2,0-0.3-0.2-0.8-0.4c0-1,0-2.1,0-3.3c0-21.5,0-43.1,0-64.6c0-3.7-0.3-7.5-1-11.2c-2.5-13-10.7-19.9-23.9-20.4
		c-20.6-0.8-33.3,11.7-33.6,33.3c-0.2,21-0.1,41.9-0.1,62.9C938.7,755.2,938.7,756.3,938.7,757.6z"/>
	<path class="st0" d="M1168.3,745.9c0,18.6,0,36.6,0,54.8c-9.7,0-19.1,0-28.6,0c0-56,0-112,0-168.2c9.1,0,18.1,0,27.6,0
		c0,3.9,0,7.9,0,12.4c2.1-1.6,3.7-2.8,5.3-4c9.6-6.7,20.4-9.6,31.9-9.7c17.4-0.2,33,4.7,45.8,16.9c10.5,10,16.2,22.4,18.1,36.7
		c2.1,16.2-0.1,31.7-8.7,45.7c-10.3,16.8-25.8,25.6-45.1,28c-14.6,1.8-28.5-0.5-41-8.8C1171.9,748.7,1170.4,747.5,1168.3,745.9z
		 M1240.4,696.7c-0.4-3.6-0.6-7.3-1.3-10.9c-3.1-16.3-15.4-26.8-32.8-28.4c-15.4-1.4-29.8,7.4-35.5,21.8c-3.3,8.4-3.7,17.1-1.9,25.9
		c3,14.3,13.4,24.6,27.7,27.4c14.7,2.8,29.3-2.9,37.1-14.7C1238,711.4,1239.8,704.3,1240.4,696.7z"/>
	<path class="st0" d="M1157.7,493c0,36.9-22.7,63.7-55.9,69.1c-20.3,3.3-39.8,1.1-57.3-10.4c-21.5-14.1-30.6-34.6-29.3-59.9
		c1.8-34.2,27.8-58.6,62.3-61.9c14.7-1.4,29,0.2,42.4,6.6C1145,448.4,1156.9,469,1157.7,493z M1052.6,495.6
		c0.6,4.2,0.8,7.9,1.6,11.4c3.2,14.5,14.5,24.4,28.9,25.5c15.4,1.2,28.2-6.3,33.6-19.9c3-7.5,3.5-15.3,2.5-23.3
		c-2-16.3-13.7-27.7-30-29.2c-15.7-1.4-29.6,7.7-34.2,22.8C1053.7,487.2,1053.3,491.6,1052.6,495.6z"/>
	<path class="st0" d="M939.9,506.9c-33.3,0-65.8,0-98.9,0c0.6,2,1,3.8,1.7,5.4c4.9,11.8,14.2,18.1,26.3,20.1
		c15.3,2.6,29.4-0.1,41.2-11c0.2-0.2,0.5-0.3,0.9-0.6c6.5,7.1,13,14.2,19.8,21.5c-0.8,0.9-1.4,1.7-2.1,2.4
		c-10.2,10.2-22.7,15.5-36.7,17.5c-17.7,2.5-35.1,1.1-51.6-6.5c-25.6-11.9-39.5-37.1-37.2-65.3c2.8-33.2,27.7-57.5,61-60.7
		c12.9-1.2,25.5,0.1,37.4,5.3c23.2,10.2,35.3,28.5,37.9,53.3C940.4,494.4,939.9,500.5,939.9,506.9z M904.6,484.9
		c-0.8-15.1-14.9-27.2-31.6-27.3c-17.2,0-31.3,11.9-32.1,27.3C862.1,484.9,883.2,484.9,904.6,484.9z"/>
	<path class="st0" d="M764.7,620.2c-6.1,6.7-12.2,13.4-18.6,20.3c-1.9-2-3.2-3.5-4.6-4.9c-25.2-25.9-77.8-19.8-92.9,18.7
		c-12.1,30.7,2,69.1,40.7,76.9c20.8,4.1,39.3-0.7,54.2-16.5c0.7-0.8,1.3-1.6,2.1-2.6c6.8,6.6,13.3,12.8,20.2,19.5
		c-4.3,3.9-8.2,8.1-12.6,11.6c-12.9,10.1-27.8,14.9-43.9,16.2c-17.7,1.4-34.8-1.2-50.5-9.6c-26.4-14.1-41-36.4-43.5-66.1
		c-2.2-26.9,5.9-50.2,25.9-68.7c15.1-13.9,33.3-20.6,53.6-21.9c16.7-1,32.7,1.5,47.7,9.3C751.5,606.9,760.5,614.4,764.7,620.2z"/>
	<path class="st0" d="M1356.1,682.6c1.4-13.2-6.5-23.1-19.7-24.8c-16.7-2.2-31.8,1.6-44.8,12.7c-0.4,0.4-0.9,0.7-1.6,1.3
		c-4.2-7.5-8.3-14.9-12.7-22.8c3.5-2.4,6.8-5.1,10.5-7.1c20.5-11,42.1-13.7,64.5-7.8c18.2,4.8,28.4,17.4,31.7,35.7
		c0.7,4.1,1.1,8.3,1.1,12.4c0.1,24.4,0.1,48.7,0.1,73.1c0,0.7,0,1.3,0,2.3c-9.3,0-18.4,0-27.7,0c0-3,0-5.8,0-9.1
		c-1.1,0.7-1.8,1.2-2.4,1.6c-11.5,7.9-24.4,9.7-37.9,8.9c-8.4-0.5-16.4-2.6-23.7-6.8c-23.2-13.3-21.9-41.9-10.1-55
		c6.9-7.7,15.9-11.7,25.8-13c8.3-1.1,16.7-1.2,25.1-1.5C1341.5,682.4,1348.7,682.6,1356.1,682.6z M1356,705.4
		c-11.5,0-22.8-0.2-34.1,0.1c-3.8,0.1-7.8,1.4-11.4,2.8c-3.6,1.3-5.9,4.3-6.6,8.2c-1.5,7.8,1.8,14,9.4,16.7c8.9,3.2,18,3.2,26.6-0.4
		C1352.6,727.7,1358.4,720.2,1356,705.4z"/>
	<path class="st0" d="M893.6,689.2c-0.1,39.4-21.8,64.9-54.8,69.2c-25.7,3.3-48.1-4-63.7-25.8c-23.1-32.2-12.8-90,40-100
		c23-4.4,44.1,0.7,61.1,17.7C888.5,662.7,893.6,678.1,893.6,689.2z M864.7,695.2c0-21.5-12.3-35.8-33.1-37.7
		c-16.6-1.5-32.2,7.3-37.3,25c-1.9,6.7-2.3,13.5-1.1,20.3c2.5,13.9,10,24.1,23.8,28.3c14.1,4.3,27.2,2,37.9-8.9
		C862.1,714.8,864.7,705.4,864.7,695.2z"/>
	<path class="st0" d="M1530.7,757.8c-9.2,0-18,0-26.9-0.1c-0.6,0-1.3-1-1.6-1.7c-0.3-0.7-0.1-1.5-0.1-2.3c0-21.3,0-42.5,0-63.8
		c0-3.9-0.2-8-1-11.8c-2.6-12.7-10.6-19.5-24-20.2c-4.8-0.3-9.7,0.2-14.3,1.3c-12.9,3.2-19.6,12.3-21.8,25
		c-0.6,3.5-0.7,7.1-0.7,10.7c-0.1,19.6,0,39.2,0,58.9c0,1.2,0,2.3,0,3.8c-9.6,0-19.1,0-28.7,0c0-41.6,0-83.2,0-124.9
		c9.1,0,18.2,0,27.6,0c0,3.7,0,7.3,0,11.3c0.8-0.4,1.4-0.6,1.8-0.9c12.2-9.4,26.2-12.3,41.2-11.6c8.2,0.4,16.1,2.1,23.4,6
		c14,7.4,21.3,19.5,24,34.6c0.8,4.3,1.2,8.8,1.2,13.2c0.1,23.3,0.1,46.6,0.1,69.9C1530.8,755.8,1530.7,756.6,1530.7,757.8z"/>
	<path class="st0" d="M1180.5,402.7c12.8,0,25.1,0,37.6,0c0,10.4,0,20.7,0,31.4c10.9,0,21.6,0,32.4,0c0,9.8,0,19.1,0,28.7
		c-10.6,0-21.2,0-32.1,0c-0.1,1.3-0.2,2.3-0.2,3.3c0,16.5,0,33,0,49.6c0,1.5,0.1,3.1,0.3,4.6c1.5,8.7,7,13.3,15.9,13.3
		c5.4,0,10.4-1.6,15.2-4.7c0.4,1,0.8,1.9,1.2,2.7c2.6,6.7,5.1,13.3,7.7,20c1.4,3.7,1.4,3.7-2.2,5.7c-6,3.2-12.4,4.9-19.1,5.5
		c-9.9,1-19.7,0.6-29.2-2.7c-16.6-5.8-25.6-18.1-26.6-35.1c-1.1-18.6-0.6-37.3-0.7-55.9c0-1.9,0-3.8,0-6.1c-6.7,0-13.2,0-20.1,0
		c0-3.1,0-5.7,0-8.4c0-5.8,0.1-11.6-0.1-17.4c-0.1-2.5,0.8-3.1,3.1-3c5.5,0.2,11,0,16.9,0C1180.5,423.7,1180.5,413.4,1180.5,402.7z"
		/>
	<path class="st0" d="M996,561.3c-12.5,0-24.7,0-37.1,0c0-59.8,0-119.4,0-179.3c12.4,0,24.6,0,37.1,0C996,441.7,996,501.4,996,561.3
		z"/>
</g>
</svg>
