<svg width="593" height="455" viewBox="0 0 593 455" fill="none" xmlns="http://www.w3.org/2000/svg">
<g clip-path="url(#clip0)">
<path opacity="0.1" d="M34.1389 233.788C54.2727 259.383 46.4507 296.768 33.6589 326.716C29.3723 336.744 24.5323 347.348 26.317 358.099C28.5252 371.243 40.261 380.859 52.5841 385.952C75.0446 395.24 101.927 393.027 122.569 380.187C140.405 369.092 153.179 351.052 171.32 340.465C201.681 322.747 240.322 329.438 273.287 341.645C296.612 350.278 322.111 361.509 345.283 352.486C361.588 346.134 372.861 330.68 379.005 314.294C381.97 306.389 384.122 297.824 389.786 291.551C393.175 287.824 397.546 285.176 402.047 282.946C443.145 262.574 495.047 273.482 534.964 250.891C561.92 235.646 579.179 206.85 586.82 176.834C594.462 146.818 593.598 115.345 591.632 84.4368C590.254 62.4668 587.781 39.0175 573.741 22.0615C558.887 4.12868 533.4 -2.54531 510.363 0.865091C487.326 4.27549 466.442 16.4264 448.07 30.7343C425.112 48.6219 403.815 70.8912 375.628 78.1637C356.426 83.0986 336.236 80.4222 316.435 79.4623C283.334 77.8983 250.222 81.3764 217.302 85.1764C185.789 88.8183 154.049 92.8272 124.026 103.075C102.786 110.303 85.7638 123.47 65.7035 132.645C52.6292 138.642 38.369 140.296 25.9838 147.936C10.7352 157.342 -3.2483 173.706 0.65985 192.852C4.37598 211.073 23.4536 220.203 34.1389 233.788Z" fill="#A8050A"/>
<path d="M107.18 345.675C107.18 345.675 105.317 290.477 75.4464 259.286C62.9087 246.198 54.6745 229.575 52.4945 211.586C51.4754 203.048 51.241 194.436 51.7942 185.855" stroke="#535461" stroke-width="2" stroke-miterlimit="10"/>
<path d="M33.0837 166.104C35.1282 172.27 52.2179 186.431 52.2179 186.431C52.2179 186.431 57.4532 164.857 55.4088 158.696C54.4269 155.737 52.3092 153.288 49.5216 151.889C46.734 150.49 43.5047 150.256 40.5442 151.238C37.5837 152.219 35.1345 154.336 33.7354 157.123C32.3363 159.91 32.1019 163.139 33.0837 166.099V166.104Z" fill="#A8050A"/>
<path d="M25.979 206.357C31.0618 210.423 53.0875 213.031 53.0875 213.031C53.0875 213.031 45.7456 192.078 40.6628 188.018C38.2176 186.221 35.1722 185.439 32.1635 185.835C29.1548 186.231 26.4158 187.775 24.5193 190.144C22.6228 192.512 21.7158 195.522 21.9878 198.544C22.2598 201.566 23.6899 204.365 25.979 206.357Z" fill="#A8050A"/>
<path d="M46.1129 264.43C52.5399 265.379 72.8882 256.525 72.8882 256.525C72.8882 256.525 55.9793 242.138 49.5523 241.19C46.4667 240.734 43.3264 241.522 40.822 243.381C38.3177 245.24 36.6546 248.017 36.1985 251.102C35.7424 254.187 36.5307 257.326 38.39 259.83C40.2493 262.334 43.0273 263.997 46.1129 264.453V264.43Z" fill="#A8050A"/>
<path d="M71.2561 304.937C77.4289 306.958 98.9859 301.651 98.9859 301.651C98.9859 301.651 84.7483 284.616 78.5754 282.594C75.6119 281.621 72.3831 281.864 69.5991 283.271C66.8152 284.678 64.7042 287.133 63.7306 290.095C62.757 293.058 63.0006 296.286 64.4076 299.07C65.8147 301.853 68.27 303.964 71.2335 304.937H71.2561Z" fill="#A8050A"/>
<path d="M76.9037 206.453C73.9048 212.213 54.782 223.494 54.782 223.494C54.782 223.494 53.0425 201.366 56.0414 195.601C56.7541 194.231 57.7297 193.016 58.9124 192.023C60.0951 191.03 61.4617 190.28 62.9343 189.816C64.4069 189.351 65.9566 189.181 67.495 189.316C69.0333 189.45 70.5301 189.886 71.8999 190.598C73.2698 191.311 74.4858 192.286 75.4786 193.469C76.4714 194.651 77.2216 196.017 77.6862 197.49C78.1509 198.962 78.3209 200.511 78.1867 202.049C78.0524 203.587 77.6164 205.084 76.9037 206.453Z" fill="#A8050A"/>
<path d="M105.712 254.199C101.126 258.801 79.5071 263.837 79.5071 263.837C79.5071 263.837 84.4713 242.2 89.0515 237.599C90.1414 236.505 91.4361 235.636 92.8616 235.043C94.2871 234.45 95.8156 234.143 97.3598 234.14C98.904 234.137 100.434 234.438 101.861 235.026C103.289 235.614 104.587 236.478 105.681 237.567C106.775 238.657 107.643 239.951 108.237 241.377C108.831 242.802 109.138 244.33 109.141 245.874C109.143 247.418 108.842 248.947 108.254 250.374C107.666 251.802 106.802 253.099 105.712 254.193V254.199Z" fill="#A8050A"/>
<path d="M127.343 304.446C123.604 309.753 103.143 318.375 103.143 318.375C103.143 318.375 104.374 296.213 108.118 290.9C108.984 289.583 110.107 288.453 111.419 287.579C112.73 286.704 114.205 286.102 115.754 285.808C117.303 285.515 118.896 285.536 120.437 285.87C121.978 286.205 123.436 286.846 124.724 287.755C126.012 288.664 127.104 289.823 127.935 291.162C128.766 292.502 129.319 293.995 129.562 295.553C129.804 297.111 129.73 298.701 129.345 300.23C128.96 301.758 128.271 303.194 127.32 304.451L127.343 304.446Z" fill="#A8050A"/>
<path d="M369.671 308.195C369.671 308.195 360.702 305.157 356.387 313.056C355.249 315.198 354.67 317.592 354.703 320.018C354.737 322.443 355.382 324.82 356.579 326.929C359.403 332.051 365.254 338.702 376.346 338.109C385.732 337.607 388.827 330.447 389.686 323.784C390.01 321.286 389.688 318.747 388.75 316.409C387.812 314.071 386.289 312.013 384.328 310.432C382.366 308.851 380.031 307.8 377.547 307.38C375.063 306.959 372.512 307.184 370.139 308.031L369.671 308.195Z" fill="#A8050A"/>
<path opacity="0.1" d="M358.477 327.641C357.28 325.531 356.635 323.154 356.601 320.729C356.568 318.304 357.147 315.909 358.285 313.768C362.6 305.863 371.568 308.906 371.568 308.906L372.026 308.743C375.445 307.506 379.204 307.59 382.564 308.98C380.71 307.876 378.634 307.197 376.485 306.992C374.337 306.787 372.169 307.061 370.139 307.794L369.682 307.958C369.682 307.958 360.714 304.92 356.399 312.819C355.26 314.961 354.681 317.355 354.715 319.78C354.748 322.205 355.394 324.583 356.591 326.692C358.46 330.08 361.629 334.095 366.757 336.291C363.257 334.219 360.393 331.227 358.477 327.641Z" fill="white"/>
<path opacity="0.2" d="M365.04 311.995C365.04 311.995 368.366 314.609 376.436 311.995H365.04Z" fill="black"/>
<path d="M364.328 293C364.328 293 370.026 308.432 369.552 312.469L374.07 311.995C374.07 311.995 366.468 298.444 368.372 293H364.328Z" fill="#A8050A"/>
<path opacity="0.2" d="M364.328 293C364.328 293 370.026 308.432 369.552 312.469L374.07 311.995C374.07 311.995 366.468 298.444 368.372 293H364.328Z" fill="black"/>
<path d="M387.591 294.288C387.591 294.288 378.622 289.703 374.601 293.492C370.58 297.28 369.97 306.964 369.97 306.964C369.97 306.964 384.603 308.974 387.591 294.288Z" fill="#A8050A"/>
<path opacity="0.1" d="M387.591 294.288C387.591 294.288 378.622 289.703 374.601 293.492C370.58 297.28 369.97 306.964 369.97 306.964C369.97 306.964 384.603 308.974 387.591 294.288Z" fill="white"/>
<path d="M369.976 306.964C369.976 306.964 372.331 295.722 387.59 294.288" stroke="#A8050A" stroke-miterlimit="10"/>
<path d="M112.179 239.693C112.179 239.693 114.008 209.847 99.511 191.507C93.3804 183.854 89.8985 174.419 89.5881 164.619C89.4789 159.965 89.7965 155.309 90.5369 150.712" stroke="#535461" stroke-width="2" stroke-miterlimit="10"/>
<path d="M81.4724 139.104C82.2575 142.531 90.7402 151.046 90.7402 151.046C90.7402 151.046 94.6935 139.685 93.8859 136.263C93.7005 135.448 93.3562 134.677 92.8727 133.994C92.3892 133.311 91.776 132.731 91.068 132.285C90.36 131.839 89.5712 131.537 88.7465 131.397C87.9218 131.256 87.0775 131.279 86.2616 131.464C85.4458 131.649 84.6745 131.994 83.9917 132.477C83.309 132.96 82.7281 133.573 82.2824 134.281C81.8366 134.989 81.5346 135.778 81.3937 136.602C81.2528 137.427 81.2757 138.271 81.4612 139.087L81.4724 139.104Z" fill="#A8050A"/>
<path d="M75.5651 160.435C78.0896 162.886 89.8366 165.427 89.8366 165.427C89.8366 165.427 86.962 153.756 84.4375 151.311C83.8378 150.729 83.1293 150.27 82.3524 149.961C81.5755 149.652 80.7454 149.5 79.9094 149.512C79.0735 149.524 78.2481 149.7 77.4804 150.031C76.7127 150.362 76.0177 150.841 75.4352 151.441C74.8526 152.04 74.3938 152.749 74.0851 153.525C73.7763 154.302 73.6236 155.132 73.6357 155.968C73.6477 156.804 73.8243 157.629 74.1554 158.396C74.4864 159.164 74.9654 159.859 75.5651 160.441V160.435Z" fill="#A8050A"/>
<path d="M83.4436 192.772C86.8322 193.613 98.2799 189.876 98.2799 189.876C98.2799 189.876 89.9045 181.254 86.4933 180.412C85.6816 180.212 84.8383 180.174 84.0117 180.299C83.1852 180.425 82.3914 180.712 81.6758 181.144C80.2306 182.017 79.1915 183.429 78.7871 185.068C78.3827 186.707 78.6461 188.439 79.5194 189.884C80.3926 191.329 81.8042 192.368 83.4436 192.772Z" fill="#A8050A"/>
<path d="M94.9139 215.888C98.1387 217.294 110.027 215.538 110.027 215.538C110.027 215.538 103.25 205.623 100.008 204.246C99.2388 203.891 98.4066 203.694 97.5601 203.666C96.7137 203.638 95.8702 203.778 95.0788 204.08C94.2875 204.381 93.5643 204.838 92.9517 205.423C92.3391 206.007 91.8493 206.708 91.5111 207.484C91.1729 208.261 90.993 209.097 90.982 209.943C90.971 210.79 91.1291 211.63 91.4471 212.415C91.765 213.2 92.2364 213.913 92.8337 214.513C93.4309 215.114 94.142 215.589 94.9252 215.911L94.9139 215.888Z" fill="#A8050A"/>
<path d="M103.018 163.106C101.109 166.059 90.2207 171.152 90.2207 171.152C90.2207 171.152 90.4184 159.137 92.3329 156.184C93.2511 154.767 94.6945 153.773 96.3457 153.421C97.9969 153.068 99.7206 153.386 101.138 154.304C102.555 155.221 103.549 156.665 103.901 158.315C104.254 159.966 103.936 161.69 103.018 163.106Z" fill="#A8050A"/>
<path d="M116.092 190.316C113.387 192.574 101.471 194.167 101.471 194.167C101.471 194.167 105.255 182.761 107.965 180.514C109.266 179.436 110.941 178.919 112.622 179.077C114.303 179.234 115.853 180.053 116.931 181.352C118.009 182.652 118.526 184.327 118.369 186.008C118.211 187.689 117.393 189.238 116.092 190.316Z" fill="#A8050A"/>
<path d="M125.168 218.508C122.881 221.179 111.411 224.776 111.411 224.776C111.411 224.776 113.212 212.918 115.505 210.225C116.05 209.59 116.714 209.069 117.46 208.691C118.205 208.313 119.018 208.085 119.852 208.021C120.686 207.957 121.524 208.058 122.319 208.318C123.114 208.578 123.85 208.992 124.485 209.536C125.12 210.08 125.641 210.744 126.019 211.49C126.398 212.236 126.625 213.049 126.689 213.882C126.753 214.716 126.652 215.554 126.392 216.349C126.132 217.143 125.718 217.879 125.174 218.514L125.168 218.508Z" fill="#A8050A"/>
<path opacity="0.5" d="M81.4724 139.104C82.2575 142.531 90.7402 151.046 90.7402 151.046C90.7402 151.046 94.6935 139.685 93.8859 136.263C93.7005 135.448 93.3562 134.677 92.8727 133.994C92.3892 133.311 91.776 132.731 91.068 132.285C90.36 131.839 89.5712 131.537 88.7465 131.397C87.9218 131.256 87.0775 131.279 86.2616 131.464C85.4458 131.649 84.6745 131.994 83.9917 132.477C83.309 132.96 82.7281 133.573 82.2824 134.281C81.8366 134.989 81.5346 135.778 81.3937 136.602C81.2528 137.427 81.2757 138.271 81.4612 139.087L81.4724 139.104Z" fill="white"/>
<path opacity="0.5" d="M75.5651 160.435C78.0896 162.886 89.8366 165.427 89.8366 165.427C89.8366 165.427 86.962 153.756 84.4375 151.311C83.8378 150.729 83.1293 150.27 82.3524 149.961C81.5755 149.652 80.7454 149.5 79.9094 149.512C79.0735 149.524 78.2481 149.7 77.4804 150.031C76.7127 150.362 76.0177 150.841 75.4352 151.441C74.8526 152.04 74.3938 152.749 74.0851 153.525C73.7763 154.302 73.6236 155.132 73.6357 155.968C73.6477 156.804 73.8243 157.629 74.1554 158.396C74.4864 159.164 74.9654 159.859 75.5651 160.441V160.435Z" fill="white"/>
<path opacity="0.5" d="M83.4436 192.772C86.8322 193.613 98.2799 189.876 98.2799 189.876C98.2799 189.876 89.9045 181.254 86.4933 180.412C85.6816 180.212 84.8383 180.174 84.0117 180.299C83.1852 180.425 82.3914 180.712 81.6758 181.144C80.2306 182.017 79.1915 183.429 78.7871 185.068C78.3827 186.707 78.6461 188.439 79.5194 189.884C80.3926 191.329 81.8042 192.368 83.4436 192.772Z" fill="white"/>
<path opacity="0.5" d="M94.9139 215.888C98.1387 217.294 110.027 215.538 110.027 215.538C110.027 215.538 103.25 205.623 100.008 204.246C99.2388 203.891 98.4066 203.694 97.5601 203.666C96.7137 203.638 95.8702 203.778 95.0788 204.08C94.2875 204.381 93.5643 204.838 92.9517 205.423C92.3391 206.007 91.8493 206.708 91.5111 207.484C91.1729 208.261 90.993 209.097 90.982 209.943C90.971 210.79 91.1291 211.63 91.4471 212.415C91.765 213.2 92.2364 213.913 92.8337 214.513C93.4309 215.114 94.142 215.589 94.9252 215.911L94.9139 215.888Z" fill="white"/>
<path opacity="0.5" d="M103.018 163.106C101.109 166.059 90.2207 171.152 90.2207 171.152C90.2207 171.152 90.4184 159.137 92.3329 156.184C93.2511 154.767 94.6945 153.773 96.3457 153.421C97.9969 153.068 99.7206 153.386 101.138 154.304C102.555 155.221 103.549 156.665 103.901 158.315C104.254 159.966 103.936 161.69 103.018 163.106Z" fill="white"/>
<path opacity="0.5" d="M116.092 190.316C113.387 192.574 101.471 194.167 101.471 194.167C101.471 194.167 105.255 182.761 107.965 180.514C109.266 179.436 110.941 178.919 112.622 179.077C114.303 179.234 115.853 180.053 116.931 181.352C118.009 182.652 118.526 184.327 118.369 186.008C118.211 187.689 117.393 189.238 116.092 190.316Z" fill="white"/>
<path opacity="0.5" d="M125.168 218.508C122.881 221.179 111.411 224.776 111.411 224.776C111.411 224.776 113.212 212.918 115.505 210.225C116.05 209.59 116.714 209.069 117.46 208.691C118.205 208.313 119.018 208.085 119.852 208.021C120.686 207.957 121.524 208.058 122.319 208.318C123.114 208.578 123.85 208.992 124.485 209.536C125.12 210.08 125.641 210.744 126.019 211.49C126.398 212.236 126.625 213.049 126.689 213.882C126.753 214.716 126.652 215.554 126.392 216.349C126.132 217.143 125.718 217.879 125.174 218.514L125.168 218.508Z" fill="white"/>
<path d="M284.922 11.5129V21.3093V205.725H570.082V21.3093V11.5129H284.922Z" fill="url(#paint0_linear)"/>
<path d="M567.06 20.3212H289.152V202.207H567.06V20.3212Z" fill="white"/>
<path d="M567.06 11.671H289.152V25.0529H567.06V11.671Z" fill="#EEEEEE"/>
<path d="M299.725 21.4053C301.518 21.4053 302.972 19.9517 302.972 18.1587C302.972 16.3656 301.518 14.912 299.725 14.912C297.931 14.912 296.478 16.3656 296.478 18.1587C296.478 19.9517 297.931 21.4053 299.725 21.4053Z" fill="#FF5252"/>
<path d="M308.654 21.4053C310.447 21.4053 311.901 19.9517 311.901 18.1587C311.901 16.3656 310.447 14.912 308.654 14.912C306.86 14.912 305.406 16.3656 305.406 18.1587C305.406 19.9517 306.86 21.4053 308.654 21.4053Z" fill="#FFFF00"/>
<path d="M317.577 21.4053C319.37 21.4053 320.824 19.9517 320.824 18.1587C320.824 16.3656 319.37 14.912 317.577 14.912C315.783 14.912 314.33 16.3656 314.33 18.1587C314.33 19.9517 315.783 21.4053 317.577 21.4053Z" fill="#69F0AE"/>
<path opacity="0.5" d="M403.364 46.4864H299.804V50.8002H403.364V46.4864Z" fill="#A8050A"/>
<path opacity="0.5" d="M403.364 55.114H299.804V59.4278H403.364V55.114Z" fill="#A8050A"/>
<path opacity="0.5" d="M403.364 63.7417H299.804V68.0555H403.364V63.7417Z" fill="#A8050A"/>
<path opacity="0.5" d="M403.359 72.3693H335.497V76.6831H403.359V72.3693Z" fill="#A8050A"/>
<path opacity="0.5" d="M354.332 81.0026H299.804V85.3164H354.332V81.0026Z" fill="#A8050A"/>
<path opacity="0.5" d="M371.196 89.6302H329.222V93.944H371.196V89.6302Z" fill="#A8050A"/>
<path opacity="0.5" d="M539.093 76.6888H417.094V146.89H539.093V76.6888Z" fill="#A8050A"/>
<path d="M553.608 83.3514H431.608V153.553H553.608V83.3514Z" fill="#EEEEEE"/>
<path d="M499.865 153.536H431.608V140.696C448.285 132.904 473.942 128.528 499.865 153.536Z" fill="#A8050A"/>
<g opacity="0.1">
<path opacity="0.1" d="M552.823 151.717V153.536H467.696V153.146C467.696 153.146 509.585 112.391 552.823 151.717Z" fill="black"/>
</g>
<path d="M553.608 151.717V153.536H468.481V153.146C468.481 153.146 510.37 112.391 553.608 151.717Z" fill="#A8050A"/>
<path d="M445.733 102.176C449.198 102.176 452.007 99.3678 452.007 95.9033C452.007 92.4388 449.198 89.6302 445.733 89.6302C442.267 89.6302 439.458 92.4388 439.458 95.9033C439.458 99.3678 442.267 102.176 445.733 102.176Z" fill="#A8050A"/>
<path d="M499.165 91.1491C498.448 91.1491 497.646 91.1491 497.103 91.1942C496.858 91.2078 496.617 91.2573 496.386 91.341L492.693 92.6679C495.675 92.7413 498.786 92.7187 501.836 92.6679L518.971 92.5381C520.716 92.5381 522.557 92.5098 524.014 92.4025C524.991 92.3348 525.709 92.2275 526.607 92.1485C529.848 91.8605 534.581 91.917 538.805 91.9283C543.03 91.9395 548.13 91.8323 549.615 91.4088H540.55C539.573 91.4088 538.546 91.4088 537.682 91.358C536.671 91.3015 536.055 91.1886 535.168 91.1095C533.7 90.9853 531.678 90.9684 529.792 90.9627C519.468 90.9571 509.263 91.2055 499.165 91.1491Z" fill="#F4F4F4"/>
<path d="M509.336 98.766C509.178 98.766 509.009 98.766 508.89 98.766C508.838 98.7702 508.787 98.7816 508.737 98.7999L507.936 99.0879C508.579 99.0879 509.257 99.0879 509.918 99.0879L513.628 99.0596C514.007 99.0596 514.402 99.0596 514.718 99.0314L515.283 98.9749C515.983 98.9128 517.011 98.9241 517.926 98.9297C518.709 98.9559 519.493 98.9181 520.27 98.8168H518.305C518.09 98.8168 517.87 98.8168 517.683 98.8168C517.497 98.8168 517.333 98.7773 517.119 98.766C516.802 98.766 516.362 98.7378 515.955 98.7321C513.73 98.7208 511.522 98.766 509.336 98.766Z" fill="#F4F4F4"/>
<path d="M483.052 109.743C482.894 109.743 482.725 109.743 482.606 109.743C482.554 109.747 482.503 109.758 482.454 109.776L481.652 110.064C482.295 110.064 482.973 110.064 483.634 110.064L487.344 110.036C487.723 110.036 488.118 110.036 488.434 110.008L488.999 109.951C489.699 109.889 490.727 109.901 491.642 109.906C492.425 109.932 493.209 109.895 493.986 109.793H492.021C491.806 109.793 491.586 109.793 491.399 109.793C491.213 109.793 491.049 109.754 490.835 109.743C490.518 109.743 490.078 109.714 489.671 109.709C487.452 109.703 485.238 109.754 483.052 109.743Z" fill="#F4F4F4"/>
<path d="M468.289 150.074H465.364C465.364 150.074 464.443 117.822 468.312 107.868H469.052C469.052 107.868 466.448 144.366 468.289 150.074Z" fill="#A8050A"/>
<path d="M466.262 106.214C466.262 106.214 463.867 112.848 464.974 115.812C464.974 115.812 466.635 109.731 468.572 108.811C470.509 107.891 472.525 115.812 472.525 115.812C472.525 115.812 473.655 110.838 471.605 106.778C474.198 108.313 476.306 110.548 477.687 113.226C477.687 113.226 478.054 110.46 473.265 104.757C473.265 104.757 477.506 105.886 480.268 108.444C480.268 108.444 481.189 106.417 475.473 103.097C475.473 103.097 476.213 100.703 480.635 101.809C480.635 101.809 480.635 98.6757 473.632 99.229C473.632 99.229 473.632 97.202 478.241 97.569C478.241 97.569 478.241 94.9886 472.892 95.909C472.892 95.909 474.022 94.2489 474.733 93.8819C473.811 93.7972 472.89 94.0611 472.152 94.6216C472.152 94.6216 472.339 91.3015 469.571 90.0142L469.204 94.6216C469.204 94.6216 466.104 90.9684 466.81 91.6742C467.255 92.7849 467.448 93.9806 467.375 95.1749C467.375 95.1749 464.24 92.5945 460.371 95.3613C460.371 95.3613 465.166 95.7283 465.901 97.3883C465.901 97.3883 461.846 96.6486 460.925 97.202C460.925 97.202 464.059 98.3312 463.873 99.0427C463.873 99.0427 458.344 99.0427 457.604 101.07C457.604 101.07 463.32 101.809 463.687 102.357C463.687 102.357 457.051 107.151 456.684 108.438C456.684 108.438 463.506 104.384 464.59 104.384C465.675 104.384 459.615 110.285 459.982 111.758C459.999 111.753 464.974 105.841 466.262 106.214Z" fill="#A8050A"/>
<path d="M504.677 148.872H506.936C506.936 148.872 507.642 124.231 504.677 116.625H504.112C504.112 116.625 506.083 144.501 504.677 148.872Z" fill="#A8050A"/>
<path d="M506.224 115.355C506.224 115.355 508.054 120.437 507.213 122.695C507.213 122.695 505.948 118.048 504.468 117.342C502.988 116.637 501.441 122.695 501.441 122.695C501.441 122.695 500.594 118.895 502.147 115.795C500.164 116.969 498.553 118.677 497.499 120.725C497.499 120.725 497.216 118.613 500.887 114.248C500.887 114.248 497.646 115.095 495.533 117.071C495.533 117.071 494.827 115.524 499.193 112.989C499.193 112.989 498.628 111.16 495.24 112.001C495.24 112.001 495.24 109.607 500.594 110.03C500.594 110.03 500.594 108.483 497.075 108.766C497.075 108.766 497.075 106.795 501.158 107.501C500.78 106.909 500.305 106.386 499.752 105.954C500.457 105.888 501.16 106.09 501.723 106.518C501.723 106.518 501.582 103.983 503.694 103.001L503.977 106.518C503.977 106.518 506.343 103.729 505.806 104.26C505.469 105.11 505.324 106.024 505.383 106.936C505.383 106.936 507.777 104.966 510.737 107.077C510.737 107.077 507.077 107.36 506.512 108.625C506.512 108.625 509.613 108.06 510.313 108.483C510.313 108.483 507.919 109.33 508.054 109.889C508.054 109.889 512.279 109.889 512.843 111.436C512.843 111.436 508.478 112.001 508.195 112.425C508.195 112.425 513.278 116.083 513.549 117.071C513.549 117.071 508.337 113.972 507.495 113.972C506.654 113.972 511.296 118.489 511.014 119.618C511.014 119.578 507.213 115.073 506.224 115.355Z" fill="#A8050A"/>
<path d="M531.639 144.055H533.034C533.034 144.055 533.469 128.81 531.639 124.084H531.289C531.289 124.084 532.508 141.351 531.639 144.055Z" fill="#A8050A"/>
<path d="M532.57 123.299C532.57 123.299 533.7 126.439 533.18 127.816C533.18 127.816 532.395 124.937 531.486 124.502C530.577 124.067 529.611 127.816 529.611 127.816C529.323 126.38 529.475 124.891 530.046 123.542C528.818 124.269 527.819 125.328 527.166 126.597C527.166 126.597 526.991 125.287 529.261 122.588C528.044 122.926 526.914 123.521 525.946 124.333C525.946 124.333 525.511 123.373 528.205 121.803C528.205 121.803 527.855 120.674 525.765 121.193C525.765 121.193 525.765 119.708 529.08 119.974C529.08 119.974 529.08 119.014 526.9 119.189C526.9 119.189 526.9 117.969 529.43 118.404C529.197 118.037 528.903 117.712 528.561 117.444C528.997 117.405 529.432 117.53 529.781 117.794C529.76 117.353 529.863 116.915 530.079 116.53C530.294 116.145 530.614 115.828 531 115.615L531.176 117.794C531.176 117.794 532.644 116.066 532.305 116.4C532.097 116.925 532.008 117.49 532.045 118.054C532.53 117.7 533.118 117.517 533.717 117.532C534.317 117.547 534.895 117.761 535.36 118.139C535.36 118.139 533.101 118.314 532.746 119.099C532.746 119.099 534.666 118.748 535.101 119.014C535.101 119.014 533.615 119.539 533.706 119.883C533.706 119.883 536.321 119.883 536.671 120.843C536.671 120.843 533.965 121.193 533.79 121.453C533.79 121.453 536.93 123.712 537.106 124.333C537.106 124.333 533.881 122.413 533.356 122.413C532.83 122.413 535.711 125.202 535.535 125.902C535.564 125.914 533.209 123.124 532.57 123.299Z" fill="#A8050A"/>
<path d="M480.612 126.8L480.319 125.23C480.318 125.115 480.294 125.001 480.249 124.896C480.203 124.79 480.137 124.694 480.053 124.615L478.692 123.949C478.591 123.827 478.509 123.689 478.449 123.542V123.508C478.525 123.414 478.579 123.304 478.607 123.186C478.61 123.156 478.61 123.126 478.607 123.096C478.736 123.114 478.866 123.082 478.971 123.006C479.077 122.931 479.149 122.817 479.172 122.69V122.656C479.146 122.759 479.087 122.852 479.005 122.92C478.923 122.988 478.821 123.028 478.715 123.034C478.901 122.909 479.054 122.742 479.161 122.545C479.268 122.348 479.326 122.129 479.33 121.905C479.33 121.905 479.33 121.865 479.33 121.848C479.39 121.811 479.442 121.762 479.482 121.704C479.522 121.645 479.549 121.579 479.562 121.51V121.476C479.545 121.542 479.515 121.604 479.473 121.659C479.431 121.713 479.379 121.758 479.319 121.792C479.309 121.662 479.28 121.535 479.234 121.414H479.268C479.401 121.414 479.529 121.361 479.624 121.266C479.718 121.172 479.771 121.044 479.771 120.911C479.771 120.911 479.771 120.911 479.771 120.877C479.762 121.004 479.705 121.124 479.612 121.211C479.519 121.298 479.396 121.346 479.268 121.346H479.206C479.354 121.298 479.485 121.21 479.585 121.091C479.685 120.972 479.749 120.828 479.771 120.674C479.771 120.674 479.771 120.674 479.771 120.64C479.764 120.738 479.729 120.833 479.669 120.911C479.679 120.845 479.675 120.778 479.659 120.714C479.643 120.65 479.614 120.589 479.575 120.536C479.535 120.483 479.485 120.438 479.428 120.404C479.371 120.37 479.308 120.348 479.243 120.338C479.177 120.328 479.11 120.332 479.046 120.348C478.982 120.364 478.921 120.393 478.868 120.432C478.815 120.472 478.77 120.522 478.736 120.579C478.702 120.635 478.679 120.699 478.669 120.764L478.579 120.713C478.607 120.612 478.667 120.522 478.749 120.456C478.831 120.39 478.931 120.352 479.037 120.346H479.003C478.896 120.344 478.792 120.376 478.705 120.437C478.617 120.498 478.552 120.585 478.517 120.685C478.214 120.544 477.869 120.517 477.548 120.61C477.226 120.702 476.949 120.907 476.766 121.188C476.659 121.267 476.523 121.38 476.529 121.476C476.485 121.521 476.445 121.57 476.41 121.622C476.261 121.949 476.207 122.311 476.252 122.667C476.272 122.844 476.25 123.023 476.187 123.19C476.124 123.357 476.023 123.507 475.891 123.627C475.95 123.652 476.013 123.665 476.077 123.665C476.141 123.665 476.205 123.652 476.264 123.627C476.381 123.578 476.491 123.513 476.591 123.435C476.684 123.38 476.763 123.304 476.823 123.215C476.888 123.258 476.958 123.294 477.032 123.322C477.06 123.559 477.066 123.83 476.964 123.915V123.87C476.71 124.062 476.394 124.153 476.077 124.124C475.89 124.134 475.708 124.192 475.548 124.29C475.389 124.389 475.256 124.526 475.162 124.688L474.739 126.501V126.529V126.557C474.744 126.582 474.757 126.605 474.775 126.623C474.793 126.641 474.816 126.653 474.84 126.659L474.97 126.693C475.014 126.981 475.012 127.275 474.965 127.562C474.875 128.001 474.824 128.447 474.812 128.895C474.846 129.121 474.903 130.284 474.925 130.837C474.878 131.023 474.84 131.212 474.812 131.402L474.18 135.191C474.18 135.191 473.711 138.223 473.733 139.143L473.649 139.674C473.649 139.674 472.367 141.283 472.745 141.509C473.124 141.735 473.7 141.836 474.253 140.978C474.327 140.776 474.447 140.595 474.603 140.447C474.665 140.393 474.713 140.325 474.744 140.248C474.774 140.172 474.786 140.089 474.778 140.007L474.739 139.634H474.807H474.846C475.194 138.491 475.384 137.306 475.411 136.111C475.411 136.111 476.58 131.944 477.472 131.289L477.557 131.249L477.749 135.281L477.557 139.73L477.517 139.996C477.517 139.996 476.235 141.605 476.614 141.831C476.992 142.057 477.568 142.158 478.122 141.3C478.196 141.098 478.315 140.917 478.472 140.769C478.534 140.715 478.582 140.647 478.612 140.57C478.643 140.494 478.655 140.411 478.647 140.329L478.59 139.764C478.811 139.019 479.381 136.856 479.155 135.608L479.545 132.949C479.94 132.509 479.884 131.385 479.884 131.385C480.194 130.741 480.262 128.2 480.262 128.2L480.341 126.947H480.516H480.578L480.607 126.913V126.885L480.612 126.8ZM479.517 129.347C479.483 129.262 479.443 129.172 479.398 129.087H479.364V129.053V129.025V128.991C479.382 128.949 479.397 128.905 479.409 128.861C479.46 128.78 479.485 128.686 479.483 128.59C479.539 128.838 479.558 129.093 479.539 129.347H479.517ZM479.398 128.274L479.319 127.433V127.365L479.426 128.432L479.398 128.274ZM475.676 128.387C475.65 128.418 475.63 128.454 475.619 128.493C475.607 128.531 475.604 128.572 475.608 128.613C475.608 128.698 475.62 128.784 475.642 128.867L475.518 129.392V128.387C475.598 128.28 475.668 128.167 475.727 128.048C475.754 128.161 475.747 128.279 475.704 128.387H475.676Z" fill="url(#paint1_linear)"/>
<path d="M476.495 121.916C476.352 122.23 476.299 122.578 476.343 122.921C476.364 123.092 476.343 123.266 476.282 123.427C476.221 123.588 476.122 123.732 475.993 123.847C476.049 123.871 476.11 123.883 476.171 123.883C476.232 123.883 476.292 123.871 476.348 123.847C476.462 123.799 476.568 123.737 476.665 123.661C476.753 123.606 476.828 123.533 476.885 123.446C476.939 123.31 476.957 123.162 476.936 123.017C476.937 122.762 476.959 122.507 477.004 122.255C477.004 122.097 477.179 121.69 477.004 121.589C476.829 121.487 476.574 121.792 476.495 121.916Z" fill="#72351C"/>
<path d="M473.903 138.578L473.785 139.352C473.785 139.352 472.548 140.905 472.915 141.119C473.282 141.334 473.835 141.435 474.366 140.611C474.438 140.418 474.554 140.244 474.705 140.103C474.765 140.051 474.811 139.985 474.841 139.912C474.87 139.838 474.882 139.758 474.875 139.679L474.756 138.482L473.903 138.578Z" fill="#333333"/>
<path d="M477.625 138.889L477.506 139.663C477.506 139.663 476.269 141.215 476.636 141.43C477.004 141.644 477.557 141.746 478.088 140.922C478.16 140.728 478.276 140.554 478.427 140.413C478.486 140.361 478.533 140.296 478.562 140.222C478.592 140.148 478.603 140.069 478.596 139.99L478.478 138.793L477.625 138.889Z" fill="#333333"/>
<path d="M475.699 129.51C475.699 129.51 475.134 129.928 474.903 131.391L474.293 135.038C474.072 136.346 473.932 137.666 473.875 138.991L474.903 139.341C475.245 138.242 475.435 137.103 475.467 135.953C475.467 135.953 476.704 131.554 477.568 131.244L477.749 135.129L477.557 139.51L478.438 139.685C478.438 139.685 479.33 136.901 479.048 135.428L479.505 132.294C479.801 131.261 479.729 130.158 479.302 129.172L475.699 129.51Z" fill="#4D8AF0"/>
<g opacity="0.1">
<path opacity="0.1" d="M477.467 131.3V131.233C476.603 131.543 475.366 135.942 475.366 135.942C475.344 137.079 475.165 138.207 474.835 139.296L474.948 139.335C475.29 138.237 475.48 137.097 475.513 135.947C475.513 135.947 476.608 131.933 477.467 131.3Z" fill="black"/>
<path opacity="0.1" d="M479.319 129.16H479.2C479.623 130.144 479.693 131.243 479.398 132.271L478.941 135.405C479.212 136.8 478.421 139.358 478.342 139.64H478.455C478.455 139.64 479.347 136.856 479.065 135.383L479.522 132.249C479.81 131.226 479.738 130.136 479.319 129.16Z" fill="black"/>
</g>
<path d="M474.908 126.653C474.908 126.683 474.917 126.713 474.936 126.736C474.954 126.76 474.981 126.777 475.01 126.783C475.293 126.85 475.559 126.977 475.789 127.156C476.224 127.495 475.332 126.478 475.332 126.478L475.032 126.546L474.908 126.653Z" fill="#F55F44"/>
<path opacity="0.1" d="M474.908 126.653C474.908 126.683 474.917 126.713 474.936 126.736C474.954 126.76 474.981 126.777 475.01 126.783C475.293 126.85 475.559 126.977 475.789 127.156C476.224 127.495 475.332 126.478 475.332 126.478L475.032 126.546L474.908 126.653Z" fill="black"/>
<path d="M479.155 127.562C479.518 127.303 479.939 127.136 480.381 127.077C480.411 127.077 480.44 127.065 480.461 127.044C480.482 127.023 480.494 126.994 480.494 126.964C480.368 126.906 480.231 126.876 480.092 126.876C479.953 126.875 479.816 126.904 479.689 126.961C479.563 127.018 479.45 127.1 479.358 127.204C479.265 127.308 479.196 127.43 479.155 127.562Z" fill="#F55F44"/>
<path opacity="0.1" d="M480.494 126.947C480.368 126.889 480.231 126.859 480.092 126.859C479.953 126.858 479.816 126.887 479.689 126.944C479.563 127.001 479.45 127.083 479.358 127.187C479.265 127.291 479.196 127.413 479.155 127.545C479.155 127.545 479.912 126.981 480.437 127.06" fill="black"/>
<path d="M477.964 123.559C478.703 123.559 479.302 122.96 479.302 122.221C479.302 121.482 478.703 120.883 477.964 120.883C477.224 120.883 476.625 121.482 476.625 122.221C476.625 122.96 477.224 123.559 477.964 123.559Z" fill="#72351C"/>
<path d="M477.037 123.158C477.037 123.158 477.229 123.943 477.037 124.107C476.845 124.271 476.473 124.564 476.755 124.796C477.037 125.027 478.065 125.417 478.404 125.23C478.743 125.044 479.133 125.095 479.042 124.705C478.952 124.316 478.206 124.395 478.189 122.447L477.037 123.158Z" fill="#FDB797"/>
<path opacity="0.1" d="M475.146 126.433C475.175 126.858 475.148 127.285 475.067 127.704C474.981 128.126 474.931 128.555 474.92 128.985C474.959 129.268 475.044 131.137 475.044 131.137C475.044 131.137 474.897 132.774 475.693 132.622C476.49 132.469 475.569 130.758 475.569 130.758L475.609 128.5C475.83 128.208 475.97 127.863 476.015 127.5C476.049 126.998 475.146 126.433 475.146 126.433Z" fill="black"/>
<path d="M475.128 126.433C475.158 126.858 475.131 127.285 475.049 127.704C474.964 128.126 474.914 128.555 474.903 128.985C474.942 129.268 475.027 131.137 475.027 131.137C475.027 131.137 474.88 132.774 475.676 132.622C476.473 132.469 475.552 130.758 475.552 130.758L475.592 128.5C475.813 128.208 475.953 127.863 475.998 127.5C476.038 126.998 475.128 126.433 475.128 126.433Z" fill="#FDB797"/>
<path opacity="0.1" d="M480.228 126.54L480.121 128.285C480.121 128.285 480.053 130.73 479.754 131.351C479.754 131.351 479.833 133.045 479.037 133.045C478.24 133.045 479.172 131.165 479.172 131.165C479.172 131.165 479.602 129.256 479.381 128.646L479.172 126.552L480.228 126.54Z" fill="black"/>
<path d="M480.24 126.54L480.132 128.285C480.132 128.285 480.065 130.73 479.765 131.351C479.765 131.351 479.844 133.045 479.048 133.045C478.252 133.045 479.184 131.165 479.184 131.165C479.184 131.165 479.613 129.256 479.393 128.646L479.184 126.552L480.24 126.54Z" fill="#FDB797"/>
<path opacity="0.1" d="M477.647 124.846C477.647 124.846 478.291 125.146 478.647 124.282L479.963 124.926C480.043 125.002 480.107 125.094 480.151 125.196C480.195 125.298 480.217 125.408 480.217 125.518L480.499 127.032C480.38 126.985 480.252 126.962 480.123 126.965C479.995 126.968 479.868 126.997 479.751 127.049C479.634 127.102 479.528 127.177 479.44 127.271C479.353 127.365 479.285 127.476 479.24 127.596L479.319 128.449C479.383 128.659 479.369 128.886 479.28 129.087C479.272 129.105 479.268 129.124 479.268 129.143C479.268 129.163 479.272 129.182 479.28 129.2C479.303 129.262 479.311 129.329 479.304 129.395C479.296 129.461 479.273 129.524 479.236 129.579C479.199 129.635 479.149 129.68 479.091 129.712C479.033 129.745 478.968 129.762 478.901 129.764C478.548 129.767 478.195 129.794 477.845 129.844C477.563 129.923 476.716 129.68 476.428 129.844C476.14 130.007 475.547 129.719 475.547 129.719L475.71 129.03C475.71 129.03 475.603 128.692 475.71 128.573C475.813 128.084 475.79 127.577 475.643 127.099C475.643 127.099 475.157 126.642 474.875 126.721L475.281 124.976C475.367 124.814 475.493 124.677 475.647 124.578C475.802 124.479 475.979 124.422 476.162 124.412C476.467 124.439 476.771 124.353 477.015 124.169C477.015 124.169 476.699 124.739 477.647 124.846Z" fill="black"/>
<path opacity="0.1" d="M477.715 124.818C477.89 124.863 478.365 124.92 478.647 124.208L479.963 124.852C480.043 124.929 480.107 125.021 480.151 125.122C480.194 125.224 480.217 125.334 480.217 125.445L480.499 126.958C480.38 126.911 480.252 126.889 480.123 126.892C479.995 126.895 479.868 126.923 479.751 126.976C479.634 127.028 479.528 127.104 479.44 127.198C479.352 127.292 479.284 127.402 479.24 127.523L479.319 128.375L479.37 128.545C479.393 128.617 479.399 128.693 479.387 128.768C479.375 128.842 479.346 128.913 479.302 128.974C479.288 128.998 479.28 129.025 479.28 129.053C479.28 129.081 479.288 129.108 479.302 129.132C479.325 129.194 479.334 129.261 479.326 129.327C479.318 129.393 479.295 129.456 479.258 129.512C479.221 129.567 479.171 129.612 479.113 129.645C479.055 129.677 478.99 129.695 478.924 129.697C478.57 129.7 478.217 129.726 477.868 129.776C477.585 129.855 476.738 129.612 476.45 129.776C476.162 129.94 475.569 129.652 475.569 129.652L475.733 128.963C475.733 128.963 475.625 128.624 475.733 128.505C475.836 128.016 475.812 127.509 475.665 127.032C475.665 127.032 475.179 126.574 474.897 126.653L475.304 124.909C475.389 124.746 475.515 124.609 475.67 124.51C475.824 124.411 476.001 124.354 476.185 124.344C476.489 124.372 476.793 124.285 477.037 124.101C477.037 124.101 476.721 124.666 477.557 124.807L477.715 124.818Z" fill="black"/>
<path d="M477.715 124.846C477.89 124.892 478.365 124.948 478.647 124.237L479.963 124.88C480.043 124.957 480.107 125.049 480.151 125.151C480.195 125.253 480.217 125.362 480.217 125.473L480.499 126.986C480.38 126.939 480.252 126.917 480.123 126.92C479.995 126.923 479.868 126.951 479.751 127.004C479.634 127.057 479.528 127.132 479.44 127.226C479.353 127.32 479.285 127.43 479.24 127.551L479.319 128.404C479.383 128.614 479.369 128.841 479.28 129.042C479.272 129.06 479.268 129.079 479.268 129.098C479.268 129.118 479.272 129.137 479.28 129.155C479.303 129.217 479.311 129.284 479.304 129.35C479.296 129.416 479.273 129.479 479.236 129.534C479.199 129.589 479.149 129.635 479.091 129.667C479.033 129.699 478.968 129.717 478.901 129.719C478.548 129.722 478.195 129.749 477.845 129.798C477.563 129.877 476.716 129.635 476.428 129.798C476.14 129.962 475.547 129.674 475.547 129.674L475.71 128.985C475.71 128.985 475.603 128.646 475.71 128.528C475.813 128.039 475.79 127.532 475.643 127.054C475.643 127.054 475.157 126.597 474.875 126.676L475.281 124.931C475.367 124.769 475.493 124.632 475.647 124.533C475.802 124.434 475.979 124.377 476.162 124.367C476.467 124.394 476.771 124.308 477.015 124.124C477.015 124.124 476.699 124.688 477.534 124.83L477.715 124.846Z" fill="#F55F44"/>
<path opacity="0.1" d="M478.212 122.509L477.083 123.226C477.111 123.349 477.134 123.473 477.15 123.599C477.282 123.651 477.421 123.677 477.563 123.678C477.844 123.659 478.109 123.539 478.308 123.339C478.25 123.066 478.218 122.788 478.212 122.509Z" fill="black"/>
<path d="M477.518 123.61C478.129 123.61 478.625 123.114 478.625 122.503C478.625 121.892 478.129 121.397 477.518 121.397C476.906 121.397 476.411 121.892 476.411 122.503C476.411 123.114 476.906 123.61 477.518 123.61Z" fill="#FDB797"/>
<path d="M479.155 121.651C479.424 121.651 479.641 121.433 479.641 121.165C479.641 120.897 479.424 120.679 479.155 120.679C478.887 120.679 478.67 120.897 478.67 121.165C478.67 121.433 478.887 121.651 479.155 121.651Z" fill="#72351C"/>
<path d="M479.246 121.679C479.123 121.679 479.004 121.633 478.914 121.549C478.824 121.465 478.769 121.35 478.76 121.227C478.76 121.227 478.76 121.227 478.76 121.261C478.76 121.39 478.811 121.513 478.902 121.604C478.993 121.695 479.117 121.747 479.246 121.747C479.375 121.747 479.498 121.695 479.589 121.604C479.68 121.513 479.731 121.39 479.731 121.261C479.731 121.261 479.731 121.261 479.731 121.227C479.723 121.35 479.668 121.465 479.578 121.549C479.488 121.633 479.369 121.679 479.246 121.679Z" fill="#72351C"/>
<path d="M478.969 122.164C478.848 122.142 478.74 122.075 478.667 121.977C478.593 121.878 478.56 121.756 478.574 121.634V121.668C478.55 121.795 478.579 121.926 478.652 122.033C478.726 122.139 478.839 122.212 478.966 122.235C479.093 122.258 479.225 122.23 479.331 122.156C479.438 122.083 479.511 121.97 479.534 121.843V121.809C479.503 121.929 479.427 122.033 479.322 122.099C479.217 122.165 479.091 122.189 478.969 122.164Z" fill="#72351C"/>
<path d="M478.59 123.328C478.47 123.306 478.362 123.238 478.288 123.14C478.215 123.042 478.182 122.919 478.195 122.797V122.831C478.172 122.958 478.2 123.089 478.274 123.196C478.348 123.302 478.46 123.375 478.588 123.398C478.715 123.421 478.846 123.393 478.953 123.32C479.059 123.246 479.132 123.133 479.155 123.006V122.972C479.124 123.092 479.049 123.196 478.944 123.262C478.839 123.328 478.712 123.352 478.59 123.328Z" fill="#72351C"/>
<path d="M479.246 121.425C479.123 121.425 479.004 121.379 478.914 121.295C478.824 121.211 478.769 121.096 478.76 120.973C478.76 120.973 478.76 120.973 478.76 121.007C478.76 121.136 478.811 121.259 478.902 121.35C478.993 121.441 479.117 121.493 479.246 121.493C479.375 121.493 479.498 121.441 479.589 121.35C479.68 121.259 479.731 121.136 479.731 121.007C479.731 121.007 479.731 121.007 479.731 120.973C479.723 121.096 479.668 121.211 479.578 121.295C479.488 121.379 479.369 121.425 479.246 121.425Z" fill="#72351C"/>
<path d="M478.568 121.159C478.569 121.036 478.617 120.918 478.702 120.829C478.787 120.74 478.903 120.687 479.025 120.679H478.992C478.863 120.679 478.739 120.731 478.648 120.822C478.557 120.913 478.506 121.036 478.506 121.165C478.506 121.294 478.557 121.417 478.648 121.508C478.739 121.599 478.863 121.651 478.992 121.651H479.025C478.901 121.643 478.783 121.588 478.698 121.497C478.613 121.405 478.566 121.284 478.568 121.159Z" fill="#72351C"/>
<path opacity="0.1" d="M479.059 125.75C479.11 125.99 479.11 126.238 479.059 126.478C479.059 126.478 478.991 127.116 479.099 127.224" fill="black"/>
<path opacity="0.1" d="M475.772 125.868C475.823 126.109 475.823 126.357 475.772 126.597C475.772 126.597 475.705 127.235 475.812 127.342" fill="black"/>
<path opacity="0.1" d="M475.744 128.505C475.848 128.542 475.962 128.542 476.066 128.505C476.193 128.467 476.329 128.467 476.456 128.505" fill="black"/>
<path opacity="0.1" d="M475.908 127.562C476.292 127.582 476.677 127.522 477.037 127.387C477.037 127.387 478.415 127.726 478.811 127.483" fill="black"/>
<path d="M475.524 133.372H475.145C475.014 133.372 474.908 133.479 474.908 133.61V133.66C474.908 133.791 475.014 133.898 475.145 133.898H475.524C475.655 133.898 475.761 133.791 475.761 133.66V133.61C475.761 133.479 475.655 133.372 475.524 133.372Z" fill="#FDB797"/>
<path d="M474.908 133.508H475.366L475.761 133.57H475.62L474.908 133.508Z" fill="#F0E4E4"/>
<path d="M477.975 131.317H478.432L478.828 131.357H478.686L477.975 131.317Z" fill="#F0E4E4"/>
<path d="M477.975 131.413H478.432L478.828 131.453H478.686L477.975 131.413Z" fill="#F0E4E4"/>
<path d="M477.975 131.515H478.432L478.828 131.554H478.686L477.975 131.515Z" fill="#F0E4E4"/>
<path d="M477.975 131.6H478.432L478.828 131.639H478.686L477.975 131.6Z" fill="#F0E4E4"/>
<path d="M474.908 133.881H475.366L475.761 133.926H475.62L474.908 133.881Z" fill="#F0E4E4"/>
<path d="M474.908 133.835H475.366L475.761 133.881H475.62L474.908 133.835Z" fill="#F0E4E4"/>
<path d="M474.908 133.773H475.366L475.761 133.819H475.62L474.908 133.773Z" fill="#F0E4E4"/>
<path d="M474.908 133.74H475.366L475.761 133.785H475.62L474.908 133.74Z" fill="#F0E4E4"/>
<path d="M474.908 133.446H475.366L475.761 133.508H475.62L474.908 133.446Z" fill="#F0E4E4"/>
<path d="M474.908 133.367H475.366L475.761 133.429H475.62L474.908 133.367Z" fill="#F0E4E4"/>
<path opacity="0.1" d="M477.704 121.792C477.66 122.205 477.712 122.622 477.856 123.011C477.926 123.2 477.956 123.4 477.944 123.6C477.932 123.8 477.879 123.996 477.789 124.175C477.849 124.189 477.911 124.189 477.971 124.174C478.031 124.16 478.087 124.131 478.133 124.09C478.23 124.004 478.313 123.906 478.382 123.796C478.454 123.707 478.506 123.603 478.534 123.491C478.545 123.316 478.518 123.141 478.455 122.978C478.379 122.677 478.325 122.371 478.291 122.063C478.291 121.876 478.291 121.334 478.082 121.284C477.873 121.233 477.744 121.634 477.704 121.792Z" fill="black"/>
<path d="M477.732 121.781C477.688 122.193 477.74 122.611 477.885 123C477.956 123.189 477.988 123.392 477.977 123.594C477.967 123.796 477.914 123.994 477.822 124.175C477.882 124.189 477.945 124.189 478.005 124.174C478.065 124.16 478.121 124.131 478.167 124.09C478.263 124.004 478.347 123.906 478.415 123.796C478.488 123.707 478.54 123.603 478.568 123.491C478.579 123.316 478.552 123.141 478.489 122.978C478.413 122.677 478.358 122.371 478.325 122.063C478.325 121.877 478.325 121.334 478.116 121.284C477.907 121.233 477.789 121.622 477.732 121.781Z" fill="#72351C"/>
<path opacity="0.1" d="M477.258 122.068C477.348 122.164 477.371 122.311 477.45 122.424C477.521 122.501 477.609 122.561 477.707 122.599C477.805 122.637 477.91 122.653 478.015 122.644C478.069 122.642 478.124 122.653 478.173 122.678C478.257 122.735 478.263 122.859 478.32 122.944C478.349 122.976 478.384 123.002 478.424 123.02C478.464 123.038 478.507 123.047 478.551 123.047C478.595 123.047 478.638 123.038 478.678 123.02C478.718 123.002 478.754 122.976 478.783 122.944C478.877 122.808 478.925 122.646 478.918 122.481C478.936 122.293 478.936 122.104 478.918 121.916C478.913 121.693 478.824 121.479 478.67 121.318C478.541 121.223 478.392 121.159 478.235 121.131C478.019 121.055 477.787 121.037 477.563 121.08C477.454 121.117 477.352 121.168 477.258 121.233L476.863 121.498C476.716 121.6 476.445 121.803 476.71 121.916C476.902 121.956 477.117 121.916 477.258 122.068Z" fill="black"/>
<path d="M477.286 122.057C477.376 122.153 477.399 122.3 477.478 122.413C477.549 122.49 477.637 122.55 477.735 122.588C477.833 122.626 477.938 122.641 478.043 122.633C478.098 122.63 478.152 122.642 478.201 122.667C478.286 122.723 478.291 122.848 478.348 122.932C478.377 122.965 478.413 122.991 478.452 123.009C478.492 123.027 478.536 123.036 478.579 123.036C478.623 123.036 478.666 123.027 478.706 123.009C478.746 122.991 478.782 122.965 478.811 122.932C478.924 122.796 478.986 122.624 478.986 122.447C479.004 122.259 479.004 122.07 478.986 121.882C478.981 121.659 478.892 121.445 478.737 121.284C478.609 121.189 478.46 121.125 478.303 121.097C478.087 121.021 477.855 121.003 477.63 121.046C477.522 121.083 477.419 121.134 477.325 121.199L476.93 121.464C476.783 121.566 476.512 121.769 476.778 121.882C476.93 121.916 477.139 121.916 477.286 122.057Z" fill="#72351C"/>
<path d="M478.003 131.317H478.461L478.856 131.357H478.715L478.003 131.317Z" fill="#F0E4E4"/>
<path d="M478.003 131.413H478.461L478.856 131.453H478.715L478.003 131.413Z" fill="#F0E4E4"/>
<path d="M478.003 131.515H478.461L478.856 131.554H478.715L478.003 131.515Z" fill="#F0E4E4"/>
<path d="M478.003 131.6H478.461L478.856 131.639H478.715L478.003 131.6Z" fill="#F0E4E4"/>
<path d="M477.789 136.811H478.246L478.641 136.851H478.5L477.789 136.811Z" fill="#F0E4E4"/>
<path d="M477.789 136.901H478.246L478.641 136.941H478.5L477.789 136.901Z" fill="#F0E4E4"/>
<path d="M477.789 136.997H478.246L478.641 137.037H478.5L477.789 136.997Z" fill="#F0E4E4"/>
<path d="M477.789 137.093H478.246L478.641 137.133H478.5L477.789 137.093Z" fill="#F0E4E4"/>
<path opacity="0.2" d="M221.601 392.241H176.68V366.939H221.601V392.241ZM178.578 390.344H219.692V368.837H178.578V390.344Z" fill="#A8050A"/>
<path d="M146.782 354.309C149.605 355.957 152.582 356.629 155.66 355.607C156.459 355.338 157.233 354.996 157.97 354.585C186.772 355.195 213.446 354.913 214.48 351.813C216.174 346.675 205.443 321.368 200.027 309.138C201.621 308.055 202.968 306.649 203.981 305.01C211.503 313.61 225.498 324.705 233.817 325.258C233.817 325.258 245.96 354.094 259.621 349.537C273.283 344.981 274.802 320.702 267.968 317.669L222.432 288.834V240.986C223.815 238.243 224.471 235.191 224.335 232.122C224.335 231.557 224.363 230.992 224.335 230.428L222.816 216.769C222.816 216.769 222.736 216.317 222.528 215.499C219.139 202.337 211.588 193.478 200.942 192.162C201.461 191.216 201.776 190.172 201.869 189.096C202.089 186.544 201.027 183.941 201.626 181.451C202.326 178.549 205.014 176.674 207.222 174.676C211.938 170.362 214.909 164.512 217.778 158.804C220.511 153.366 223.284 147.788 223.99 141.746C224.696 135.704 222.861 128.997 217.919 125.439C214.079 122.667 208.674 121.939 205.912 118.099C204.675 116.371 204.161 114.243 203.309 112.3C200.852 106.705 195.554 102.735 189.805 100.663C169.632 93.4019 144.884 101.736 132.013 118.483C127.811 123.949 124.779 130.205 121.78 136.41L110.936 158.821C109.067 162.677 107.26 167.493 109.756 170.977C110.976 172.671 113.065 173.721 113.913 175.635C115.042 178.176 113.63 181.502 115.291 183.738C116.205 184.975 117.792 185.466 119.154 186.188C120.981 187.228 122.572 188.638 123.824 190.327L100.014 208.774C98.2932 210.107 96.8622 211.776 95.8077 213.679C94.7533 215.583 94.0975 217.681 93.8804 219.846L91.5253 243.313C90.776 245.978 90.4183 248.738 90.4636 251.505C90.3789 253.979 90.6669 256.706 91.9037 258.846L92.4233 258.722C92.9881 275.181 93.9708 298.861 94.9422 303.237C95.5069 305.835 99.0706 310.414 103.871 315.134L102.177 319.934H102.742L102.177 321.441H103.306C98.5171 338.742 85.488 351.779 85.488 351.779C85.488 351.779 115.618 353.417 146.782 354.309ZM118.464 274.368V255.921C121.243 256.35 123.293 257.31 123.948 259.06L118.464 274.368ZM126.507 194.088L126.597 194.223H126.563L126.507 194.088Z" fill="url(#paint2_linear)"/>
<path d="M195.018 235.972C195.018 235.972 196.458 287.14 197.904 293.627C199.35 300.115 220.257 319.595 231.061 320.318C231.061 320.318 242.593 347.702 255.572 343.377C268.55 339.052 269.99 315.992 263.478 313.107L220.257 285.722V230.953L195.018 235.972Z" fill="#FDB797"/>
<path d="M196.102 298.698C196.102 298.698 214.847 339.058 212.684 345.562C210.521 352.067 90.1304 345.562 90.1304 345.562C90.1304 345.562 112.478 323.22 108.152 298.698H196.102Z" fill="#565171"/>
<path d="M181.684 179.063C181.684 179.063 178.798 207.17 183.847 213.658C188.896 220.146 163.662 223.742 161.522 223.742C159.381 223.742 136.294 215.837 131.968 213.652C127.642 211.467 124.061 195.635 124.061 195.635C124.061 195.635 145.686 199.96 152.175 174.743L181.684 179.063Z" fill="#FDB797"/>
<path d="M189.24 106.964C194.702 108.929 199.734 112.701 202.066 118.014C202.879 119.861 203.365 121.882 204.54 123.525C207.16 127.184 212.294 127.873 215.942 130.51C220.624 133.898 222.358 140.261 221.708 145.998C221.059 151.734 218.422 157.036 215.829 162.197C213.102 167.623 210.283 173.174 205.805 177.273C203.715 179.187 201.151 180.966 200.485 183.721C199.92 186.087 200.925 188.554 200.711 190.982C200.191 196.973 193.03 199.762 187.049 200.429C184.451 200.717 181.475 200.733 179.645 198.865C178.708 197.905 178.239 196.606 177.64 195.398C176.279 192.646 174.183 190.325 171.583 188.692C168.983 187.059 165.982 186.177 162.912 186.146C159.841 186.114 156.822 186.934 154.19 188.513C151.557 190.092 149.413 192.37 147.996 195.093C146.595 197.792 145.776 201.061 143.224 202.71C139.315 205.234 134.091 202.269 131.217 198.622C128.342 194.974 126.247 190.389 122.141 188.204C120.848 187.515 119.317 187.075 118.476 185.878C116.9 183.755 118.238 180.599 117.171 178.182C116.363 176.364 114.381 175.359 113.218 173.755C110.846 170.446 112.563 165.85 114.347 162.208L124.648 140.922C127.472 135.027 130.381 129.064 134.368 123.892C146.573 107.981 170.078 100.065 189.24 106.964Z" fill="#8F5A6A"/>
<path opacity="0.1" d="M162.945 218.7C162.945 218.7 134.831 218.7 127.625 192.755L103.961 211.089C102.328 212.356 100.97 213.942 99.969 215.75C98.968 217.559 98.3452 219.552 98.1386 221.608L95.8795 243.928C95.8795 243.928 93.355 252.217 96.241 257.259C96.241 257.259 126.173 249.693 126.879 258.338L105.994 316.715C105.994 316.715 138.434 317.438 147.081 311.673C147.081 311.673 182.401 318.878 191.053 310.95C199.705 303.023 208.352 303.746 201.145 285.728C201.145 285.728 215.564 271.313 209.052 251.133C202.54 230.953 208.691 251.494 208.691 251.494C208.691 251.494 222.748 244.645 222.025 231.675L220.585 218.689C220.585 218.689 220.506 218.26 220.308 217.486C215.914 200.389 204.105 190.948 187.506 196.967C182.655 198.723 177.697 196.713 177.697 196.713C177.697 196.713 183.124 220.163 162.945 218.7Z" fill="black"/>
<path d="M162.945 217.26C162.945 217.26 134.831 217.26 127.625 191.315L103.961 209.649C102.329 210.916 100.971 212.501 99.97 214.308C98.9691 216.115 98.346 218.107 98.1386 220.163L95.8795 242.483C95.8795 242.483 93.355 250.771 96.241 255.814C96.241 255.814 126.173 248.248 126.879 256.892L105.983 315.27C105.983 315.27 138.423 315.992 147.07 310.228C147.07 310.228 182.39 317.432 191.042 309.505C199.694 301.577 208.341 302.3 201.134 284.283C201.134 284.283 215.553 269.867 209.041 249.687C202.529 229.507 208.679 250.049 208.679 250.049C208.679 250.049 222.736 243.2 222.013 230.23L220.573 217.243C220.573 217.243 220.494 216.814 220.297 216.041C215.903 198.944 204.094 189.503 187.495 195.522C182.644 197.278 177.685 195.268 177.685 195.268C177.685 195.268 183.124 218.7 162.945 217.26Z" fill="#B45181"/>
<path d="M96.2637 241.76C96.2637 241.76 97.7038 292.927 99.1496 299.415C100.595 305.902 121.497 325.36 132.307 326.082C132.307 326.082 143.839 353.467 156.817 349.142C169.796 344.817 171.236 321.757 164.724 318.872L121.475 291.487V236.718L96.2637 241.76Z" fill="#FDB797"/>
<path opacity="0.1" d="M127.258 243.561C127.258 243.561 110.693 254.809 96.2638 253.871C96.2638 253.871 94.8236 234.555 99.1497 233.477C103.476 232.398 122.215 233.477 127.258 243.561Z" fill="black"/>
<path d="M127.258 242.844C127.258 242.844 110.693 254.091 96.2638 253.149C96.2638 253.149 94.8236 233.832 99.1497 232.754C103.476 231.675 122.215 232.754 127.258 242.844Z" fill="#B45181"/>
<path opacity="0.1" d="M150.69 176.177L180.244 180.503C180.244 180.503 179.577 187.007 179.447 194.477C173.705 196.898 167.396 197.652 161.244 196.653C155.092 195.655 149.346 192.944 144.664 188.831C147.137 185.782 149.272 181.683 150.69 176.177Z" fill="black"/>
<path d="M167.988 195.635C186.301 195.635 201.146 180.793 201.146 162.485C201.146 144.177 186.301 129.335 167.988 129.335C149.676 129.335 134.831 144.177 134.831 162.485C134.831 180.793 149.676 195.635 167.988 195.635Z" fill="#FDB797"/>
<path opacity="0.1" d="M159.263 156.116C160.629 156.748 162.188 156.76 163.696 156.748C169.562 156.711 175.423 156.494 181.277 156.099C185.716 155.8 190.449 155.28 193.871 152.44C198.48 148.618 199.208 141.452 196.831 135.959C194.453 130.465 189.602 126.416 184.479 123.322C181.581 121.485 178.441 120.062 175.15 119.093C165.645 116.512 155.134 119.657 147.583 126.01C140.033 132.362 135.221 141.469 132.674 150.983C131.793 154.275 130.663 158.194 127.405 159.193C129.573 162.801 134.865 163.372 138.672 161.565C144.274 158.9 147.143 148.702 152.175 147.099C157.772 145.331 154.507 153.937 159.263 156.116Z" fill="black"/>
<path d="M159.263 155.393C160.63 156.026 162.188 156.037 163.696 156.026C169.562 155.988 175.423 155.772 181.277 155.376C185.716 155.077 190.449 154.558 193.872 151.717C198.48 147.895 199.209 140.73 196.831 135.236C194.453 129.742 189.602 125.693 184.48 122.599C181.585 120.774 178.451 119.36 175.167 118.398C165.662 115.818 155.151 118.963 147.601 125.315C140.05 131.667 135.238 140.775 132.691 150.289C131.81 153.581 130.68 157.499 127.422 158.499C129.59 162.107 134.882 162.677 138.689 160.87C144.291 158.205 147.16 148.008 152.192 146.404C157.772 144.614 154.508 153.214 159.263 155.393Z" fill="#8F5A6A"/>
<path opacity="0.1" d="M201.507 283.921C190.692 281.033 179.544 279.579 168.35 279.596L201.507 283.921Z" fill="black"/>
<path opacity="0.1" d="M127.258 245.007C127.258 245.007 138.073 252.911 135.164 257.259L127.258 245.007Z" fill="black"/>
<g opacity="0.7">
<path opacity="0.7" d="M426.158 326.721H72.2217V357.657H92.8242V363.698V455.006H406.29V363.698V357.657H426.158V326.721Z" fill="url(#paint3_linear)"/>
</g>
<path d="M403.087 344.738H96.0095V455.006H403.087V344.738Z" fill="#E0E0E0"/>
<path opacity="0.1" d="M403.087 350.503H96.0095V367.798H403.087V350.503Z" fill="black"/>
<path d="M422.555 332.485H75.825V362.033H422.555V332.485Z" fill="#E0E0E0"/>
<path d="M203.986 325.213H145.008C142.981 325.213 141.337 326.856 141.337 328.883V330.91C141.337 332.937 142.981 334.58 145.008 334.58H203.986C206.014 334.58 207.657 332.937 207.657 330.91V328.883C207.657 326.856 206.014 325.213 203.986 325.213Z" fill="#535461"/>
<g opacity="0.7">
<path opacity="0.7" d="M330.589 220.755H197.639C188.836 220.755 181.701 227.889 181.701 236.689V318.765C181.701 327.565 188.836 334.699 197.639 334.699H330.589C339.391 334.699 346.527 327.565 346.527 318.765V236.689C346.527 227.889 339.391 220.755 330.589 220.755Z" fill="url(#paint4_linear)"/>
</g>
<path d="M325.625 222.862H199.802C191.43 222.862 184.643 229.647 184.643 238.016V319.544C184.643 327.914 191.43 334.699 199.802 334.699H325.625C333.996 334.699 340.783 327.914 340.783 319.544V238.016C340.783 229.647 333.996 222.862 325.625 222.862Z" fill="#3E3F49"/>
<path d="M327.788 222.862H201.964C193.593 222.862 186.806 229.647 186.806 238.016V319.544C186.806 327.914 193.593 334.699 201.964 334.699H327.788C336.159 334.699 342.946 327.914 342.946 319.544V238.016C342.946 229.647 336.159 222.862 327.788 222.862Z" fill="#535461"/>
<path d="M272.17 283.052C274.955 283.052 277.213 280.794 277.213 278.009C277.213 275.225 274.955 272.967 272.17 272.967C269.385 272.967 267.127 275.225 267.127 278.009C267.127 280.794 269.385 283.052 272.17 283.052Z" fill="#E0E0E0"/>
</g>
<defs>
<linearGradient id="paint0_linear" x1="427.502" y1="205.725" x2="427.502" y2="11.5073" gradientUnits="userSpaceOnUse">
<stop stop-color="#808080" stop-opacity="0.25"/>
<stop offset="0.54" stop-color="#808080" stop-opacity="0.12"/>
<stop offset="1" stop-color="#808080" stop-opacity="0.1"/>
</linearGradient>
<linearGradient id="paint1_linear" x1="7766.89" y1="6585.57" x2="7766.89" y2="5753.11" gradientUnits="userSpaceOnUse">
<stop stop-color="#808080" stop-opacity="0.25"/>
<stop offset="0.54" stop-color="#808080" stop-opacity="0.12"/>
<stop offset="1" stop-color="#808080" stop-opacity="0.1"/>
</linearGradient>
<linearGradient id="paint2_linear" x1="-98917.1" y1="174998" x2="-98917.1" y2="57026.7" gradientUnits="userSpaceOnUse">
<stop stop-color="#808080" stop-opacity="0.25"/>
<stop offset="0.54" stop-color="#808080" stop-opacity="0.12"/>
<stop offset="1" stop-color="#808080" stop-opacity="0.1"/>
</linearGradient>
<linearGradient id="paint3_linear" x1="156240" y1="103703" x2="156240" y2="74557.6" gradientUnits="userSpaceOnUse">
<stop stop-color="#808080" stop-opacity="0.25"/>
<stop offset="0.54" stop-color="#808080" stop-opacity="0.12"/>
<stop offset="1" stop-color="#808080" stop-opacity="0.1"/>
</linearGradient>
<linearGradient id="paint4_linear" x1="77264.1" y1="67763" x2="77264.1" y2="44769.2" gradientUnits="userSpaceOnUse">
<stop stop-color="#808080" stop-opacity="0.25"/>
<stop offset="0.54" stop-color="#808080" stop-opacity="0.12"/>
<stop offset="1" stop-color="#808080" stop-opacity="0.1"/>
</linearGradient>
<clipPath id="clip0">
<rect width="593" height="455" fill="white"/>
</clipPath>
</defs>
</svg>
