<svg width="838" height="504" viewBox="0 0 838 504" fill="none" xmlns="http://www.w3.org/2000/svg">
<g clip-path="url(#clip0)">
<path d="M570.107 287.721L577.293 286.48C577.982 286.359 578.667 286.212 579.355 286.087C567.982 279.036 559.348 268.332 554.872 255.731C550.397 243.131 550.345 229.385 554.726 216.752C559.108 204.119 567.661 193.35 578.981 186.214C590.301 179.078 603.715 176 617.018 177.486L607.6 199.869L629.914 180.41C629.966 180.422 630.017 180.439 630.066 180.46C637.373 183.031 644.102 187.013 649.868 192.181C655.633 197.348 660.324 203.599 663.671 210.577C667.017 217.555 668.955 225.123 669.374 232.849C669.792 240.575 668.682 248.307 666.109 255.605C665.735 256.666 665.291 257.68 664.865 258.705C671.164 255.544 677.207 251.864 682.135 247.152C692.112 237.604 697.578 224.428 703.687 208.194C715.789 176.025 727.441 143.391 738.628 110.685C726.289 104.017 716.736 93.1729 711.683 80.1016C706.63 67.0302 706.41 52.5879 711.061 39.3687C711.66 37.668 712.355 36.0303 713.091 34.4219C713.275 34.0194 713.46 33.6194 713.652 33.2226C714.4 31.6806 715.19 30.1698 716.057 28.7198C716.198 28.4821 716.357 28.2597 716.501 28.0246C717.256 26.802 718.051 25.6157 718.888 24.4655C719.2 24.0337 719.51 23.603 719.833 23.1815C720.781 21.943 721.763 20.738 722.798 19.5875C723.144 19.2026 723.511 18.8429 723.867 18.468C724.662 17.6296 725.48 16.8165 726.319 16.0287C726.761 15.614 727.199 15.1963 727.653 14.7963C727.77 14.6936 727.878 14.5816 727.996 14.4798C728.002 14.4873 728.006 14.4954 728.012 14.5028C738.402 5.45923 751.637 0.337808 765.416 0.0286551C779.195 -0.280498 792.647 4.24216 803.434 12.8106L791.178 41.9383L813.238 22.7103C820.959 32.534 825.334 44.5646 825.726 57.0469C826.119 69.5292 822.507 81.8101 815.419 92.0981C815.439 92.1052 815.46 92.1108 815.48 92.1179C815.24 92.4715 814.966 92.795 814.718 93.1423C814.253 93.794 813.777 94.4342 813.29 95.0627C812.663 95.8688 812.012 96.6478 811.348 97.4161C810.846 97.9961 810.351 98.5809 809.829 99.1388C809.065 99.9549 808.265 100.728 807.46 101.496C806.989 101.944 806.539 102.415 806.056 102.847C804.788 103.978 803.476 105.052 802.12 106.067C801.645 106.423 801.143 106.737 800.658 107.078C799.706 107.746 798.749 108.405 797.761 109.015C797.148 109.394 796.518 109.74 795.892 110.096C794.986 110.611 794.073 111.111 793.142 111.577C792.481 111.908 791.816 112.222 791.143 112.528C790.187 112.963 789.218 113.367 788.239 113.751C787.582 114.009 786.929 114.27 786.263 114.504C785.164 114.891 784.049 115.227 782.928 115.548C782.362 115.711 781.805 115.896 781.234 116.042C779.552 116.47 777.85 116.835 776.13 117.115C775.806 117.167 775.477 117.187 775.152 117.235C773.725 117.442 772.291 117.609 770.846 117.711C770.224 117.755 769.599 117.761 768.975 117.786C767.807 117.831 766.638 117.854 765.462 117.829C764.776 117.814 764.09 117.779 763.403 117.74C762.258 117.676 761.112 117.576 759.965 117.442C759.287 117.363 758.61 117.285 757.932 117.183C756.703 116.996 755.475 116.753 754.247 116.486C754.167 116.469 754.086 116.458 754.006 116.44C749.284 130.238 744.475 144.007 739.578 157.746C745.55 152.382 752.557 148.294 760.167 145.732C767.778 143.17 775.833 142.189 783.837 142.848C791.842 143.507 799.627 145.792 806.715 149.564C813.803 153.336 820.044 158.515 825.056 164.783L804.662 187.309L832.275 176.3C838.982 190.347 839.831 206.479 834.635 221.151C832.835 226.307 830.312 231.181 827.142 235.63C820.319 245.268 810.755 252.636 799.688 256.779C788.622 260.921 776.564 261.647 765.08 258.862C753.595 256.077 743.214 249.91 735.282 241.16C727.35 232.41 722.233 221.481 720.596 209.792C720.077 211.176 719.576 212.578 719.056 213.961C713.665 228.282 706.959 246.105 693.49 258.99C684.361 267.724 673.129 273.265 662.352 277.95C655.335 281 648.224 283.82 641.02 286.41C633.011 291.26 623.962 294.14 614.62 294.813C603.253 297.967 591.743 300.599 580.124 302.632L572.88 303.879C566.369 304.993 559.694 306.14 553.068 307.461C554.022 307.744 554.977 308.014 555.926 308.347C567.732 312.497 577.91 320.288 584.991 330.595C592.072 340.902 595.689 353.19 595.318 365.685L549.902 379.607L590.998 386.125C587.239 395.353 581.199 403.478 573.443 409.743C565.687 416.007 556.468 420.206 546.646 421.946C536.825 423.687 526.722 422.913 517.282 419.697C507.841 416.481 499.37 410.928 492.661 403.556C493.078 404.952 493.497 406.345 493.918 407.737C494.752 410.502 495.58 413.252 496.375 415.976C507.189 453.088 502.535 482.281 483.268 498.174L472.813 485.534C491.565 470.063 485.747 438.184 480.613 420.555C479.833 417.88 479.018 415.179 478.199 412.463C471.155 389.093 463.171 362.604 473.512 338.262C489.097 301.575 534.015 293.893 570.107 287.721Z" fill="#F2F2F2"/>
<path d="M556.796 502.935H238.585C228.15 502.935 218.143 498.795 210.764 491.425C203.385 484.056 199.24 474.06 199.24 463.638V318.032C199.24 315.917 199.671 313.825 200.508 311.882C201.344 309.94 202.567 308.188 204.104 306.733L372.724 147.094C379.466 140.712 388.402 137.154 397.691 137.154C406.98 137.154 415.916 140.712 422.658 147.094L583.428 299.301C587.444 303.104 590.643 307.683 592.829 312.761C595.015 317.838 596.142 323.307 596.142 328.834V463.638C596.142 468.799 595.124 473.909 593.147 478.676C591.17 483.444 588.271 487.776 584.618 491.425C580.964 495.074 576.627 497.969 571.853 499.944C567.08 501.918 561.963 502.935 556.796 502.935Z" fill="#3F3D56"/>
<path opacity="0.1" d="M199.24 320.422H592.834V479.206C592.834 485.499 590.331 491.535 585.876 495.985C581.42 500.435 575.377 502.935 569.076 502.935H222.998C216.697 502.935 210.654 500.435 206.199 495.985C201.743 491.535 199.24 485.499 199.24 479.206V320.422Z" fill="black"/>
<path d="M521.986 195.306H272.569C260.612 195.306 250.92 204.987 250.92 216.928V466.035C250.92 477.976 260.612 487.657 272.569 487.657H521.986C533.943 487.657 543.635 477.976 543.635 466.035V216.928C543.635 204.987 533.943 195.306 521.986 195.306Z" fill="#A8050A"/>
<path opacity="0.1" d="M543.635 326.988V487.657H250.92V326.988L397.277 397.639L543.635 326.988Z" fill="black"/>
<path d="M397.277 406.723L209.746 316.196C208.587 315.636 207.303 315.38 206.017 315.451C204.73 315.521 203.483 315.917 202.392 316.601C201.3 317.285 200.401 318.234 199.777 319.36C199.154 320.486 198.827 321.752 198.827 323.038V478.793C198.827 481.909 199.441 484.995 200.635 487.874C201.829 490.753 203.579 493.369 205.785 495.572C207.991 497.775 210.61 499.523 213.493 500.716C216.375 501.908 219.465 502.522 222.585 502.522H571.97C575.09 502.522 578.18 501.908 581.062 500.716C583.945 499.523 586.564 497.775 588.77 495.572C590.976 493.369 592.726 490.753 593.92 487.874C595.114 484.995 595.728 481.909 595.728 478.793V325.707C595.728 324.137 595.329 322.592 594.568 321.218C593.807 319.844 592.71 318.686 591.378 317.851C590.046 317.017 588.524 316.534 586.954 316.447C585.385 316.361 583.819 316.674 582.403 317.358L397.277 406.723Z" fill="#3F3D56"/>
<path d="M358.001 222.146H276.14V233.708H358.001V222.146Z" fill="#F2F2F2"/>
<path d="M512.627 264.265H269.525V270.871H512.627V264.265Z" fill="#F2F2F2"/>
<path d="M512.627 286.562H269.525V293.169H512.627V286.562Z" fill="#F2F2F2"/>
<path d="M512.627 308.86H269.525V315.467H512.627V308.86Z" fill="#F2F2F2"/>
<path d="M50.4017 502.522H731.75" stroke="#3F3D56" stroke-miterlimit="10"/>
<path d="M0 400.828C0 449.52 30.5851 488.922 68.3824 488.922L0 400.828Z" fill="#46455B"/>
<path d="M68.3824 488.922C68.3824 439.682 102.514 399.838 144.693 399.838L68.3824 488.922Z" fill="#A8050A"/>
<path d="M24.7762 405.242C24.7762 451.495 44.2798 488.922 68.3824 488.922L24.7762 405.242Z" fill="#A8050A"/>
<path d="M68.3824 488.922C68.3824 426.005 107.833 375.093 156.586 375.093L68.3824 488.922Z" fill="#46455B"/>
<path d="M53.9965 489.543C53.9965 489.543 63.6942 489.244 66.6169 487.166C69.5395 485.087 81.5344 482.605 82.2595 485.939C82.9845 489.272 96.8334 502.519 85.8847 502.607C74.936 502.695 60.4448 500.903 57.5277 499.129C54.6107 497.354 53.9965 489.543 53.9965 489.543Z" fill="#A8A8A8"/>
<path opacity="0.2" d="M86.0801 501.446C75.1314 501.535 60.6402 499.743 57.7231 497.968C55.5016 496.617 54.6164 491.767 54.3202 489.53C54.1151 489.539 53.9965 489.543 53.9965 489.543C53.9965 489.543 54.6107 497.354 57.5277 499.129C60.4448 500.904 74.936 502.695 85.8847 502.607C89.0452 502.581 90.1368 501.458 90.0769 499.795C89.6378 500.8 88.4325 501.427 86.0801 501.446Z" fill="black"/>
<path d="M595.116 134.424C594.619 138.846 591.242 142.408 589.99 146.679C588.107 153.107 591.364 160.005 595.818 165.011C599.413 169.008 603.766 172.252 608.625 174.556C613.484 176.861 618.753 178.179 624.125 178.434C625.704 178.573 627.294 178.4 628.806 177.925C630.155 177.383 631.37 176.553 632.366 175.495C635.721 172.13 637.522 167.469 638.24 162.775C638.958 158.081 638.679 153.299 638.398 148.559C638.399 147.579 638.221 146.607 637.872 145.691C637.415 144.819 636.786 144.048 636.024 143.423C633.609 141.21 630.948 139.279 628.095 137.669C626.805 137.092 625.667 136.223 624.772 135.13C624.233 134.194 623.883 133.161 623.745 132.09L622.869 127.631C622.712 126.346 622.273 125.112 621.582 124.017C620.035 121.932 617.074 121.648 614.478 121.546L604.964 121.174C602.005 121.058 598.106 120.21 595.217 120.791C592.519 121.333 593.416 123.815 593.906 126.076C594.616 128.805 595.022 131.605 595.116 134.424Z" fill="#A0616A"/>
<path opacity="0.1" d="M595.116 134.424C594.619 138.846 591.242 142.408 589.99 146.679C588.107 153.107 591.364 160.005 595.818 165.011C599.413 169.008 603.766 172.252 608.625 174.556C613.484 176.861 618.753 178.179 624.125 178.434C625.704 178.573 627.294 178.4 628.806 177.925C630.155 177.383 631.37 176.553 632.366 175.495C635.721 172.13 637.522 167.469 638.24 162.775C638.958 158.081 638.679 153.299 638.398 148.559C638.399 147.579 638.221 146.607 637.872 145.691C637.415 144.819 636.786 144.048 636.024 143.423C633.609 141.21 630.948 139.279 628.095 137.669C626.805 137.092 625.667 136.223 624.772 135.13C624.233 134.194 623.883 133.161 623.745 132.09L622.869 127.631C622.712 126.346 622.273 125.112 621.582 124.017C620.035 121.932 617.074 121.648 614.478 121.546L604.964 121.174C602.005 121.058 598.106 120.21 595.217 120.791C592.519 121.333 593.416 123.815 593.906 126.076C594.616 128.805 595.022 131.605 595.116 134.424Z" fill="black"/>
<path d="M655.633 333.462C654.286 348.222 652.938 362.98 651.59 377.735C650.535 389.347 649.459 401.006 647.39 412.469C646.675 416.419 645.838 420.348 644.844 424.244C642.08 435.06 638.071 445.632 636.778 456.721C636.737 457.04 636.703 457.366 636.669 457.693C636.524 460.145 636.06 462.567 635.287 464.899C634.64 466.592 633.646 468.135 632.945 469.808C631.55 473.153 631.366 476.851 631.196 480.475C626.287 477.718 620.914 475.884 615.342 475.063C612.654 474.662 609.658 474.377 607.827 472.371C605.799 470.155 606.023 466.762 606.364 463.784C607.433 454.538 608.499 445.297 609.563 436.06C609.91 432.086 610.587 428.147 611.585 424.285C611.952 423 612.395 421.735 612.844 420.471C613.464 418.73 614.09 416.99 614.559 415.202C615.236 412.313 615.709 409.38 615.975 406.425C617.071 397.124 618.392 387.844 619.549 378.551L619.61 378.061C621.346 363.974 622.667 349.82 622.286 335.631C622.231 333.53 622.143 331.43 622.006 329.322C621.816 326.269 621.537 324.651 624.069 322.741C626.867 320.633 630.549 319.158 633.749 317.778C635.471 317.03 654.435 310.306 654.878 311.782C655.767 314.929 656.234 318.18 656.266 321.449C656.28 325.462 656.069 329.473 655.633 333.462Z" fill="#605D82"/>
<path opacity="0.1" d="M647.39 412.469C646.675 416.419 645.838 420.348 644.844 424.244C642.081 435.06 638.071 445.632 636.778 456.721C636.737 457.04 636.703 457.366 636.669 457.693C628.215 445.632 621.094 432.66 612.844 420.471C613.464 418.73 614.09 416.99 614.56 415.202C615.236 412.313 615.71 409.38 615.975 406.425C617.071 397.124 618.392 387.844 619.549 378.55L619.61 378.061C620.095 380.034 620.786 381.951 621.673 383.779C627.214 395.023 640.379 400.707 646.818 411.469C647.016 411.802 647.206 412.136 647.39 412.469Z" fill="black"/>
<path d="M578.788 313.59C579.067 322.609 580.513 331.547 581.955 340.454L584.932 358.832C586.561 368.891 588.257 379.154 593.022 388.163C596.588 394.902 601.724 400.653 606.371 406.699C617.795 421.563 626.376 438.401 637.209 453.7C640.357 458.147 644.858 462.957 650.231 462.028C653.758 461.419 656.319 458.486 659.091 456.225C662.36 453.559 666.299 451.609 668.87 448.268C671.442 444.926 671.945 439.372 668.462 436.995C667.201 436.297 665.863 435.75 664.474 435.365C659.073 433.314 655.578 428.046 653.353 422.72C651.129 417.394 649.781 411.667 646.818 406.713C640.379 395.951 627.212 390.267 621.67 379.018C618.565 372.718 618.27 365.456 618.032 358.438L617.428 340.549C617.361 338.593 617.31 336.558 618.106 334.769C620.226 330.007 626.627 329.564 631.81 328.96C637.692 328.271 643.391 326.476 648.604 323.668C651.589 322.058 654.505 320.006 656.102 317.016C657.559 314.289 657.761 311.09 657.931 308.003L659.726 275.582C659.88 272.793 660.021 269.908 659.037 267.294C656.565 260.728 648.264 258.582 641.247 258.895C628.191 259.478 616.138 265.088 603.827 268.876C600.778 269.837 597.682 270.643 594.552 271.292C591.789 271.846 588.445 271.616 585.81 272.503C581.124 274.081 581.243 284.317 580.579 288.563C579.206 296.832 578.607 305.21 578.788 313.59Z" fill="#605D82"/>
<path d="M648.458 463.387C649.61 464.547 649.986 466.246 650.286 467.851C651.949 476.756 652.814 485.792 652.871 494.85C652.794 495.696 652.963 496.545 653.357 497.297C653.681 497.745 654.121 498.098 654.629 498.317C657.956 499.901 661.819 497.694 664.592 495.268C669.732 490.771 674.081 484.735 674.373 477.916C674.319 476.16 674.381 474.402 674.557 472.654C675.009 470.087 676.51 467.85 677.832 465.603C680.083 461.778 681.898 457.714 683.244 453.486C683.75 451.898 684.086 449.898 682.84 448.789C682.398 448.444 681.896 448.183 681.358 448.02L666.327 442.446C665.024 441.963 661.783 450.279 661.269 451.188C660.01 453.411 658.759 454.674 656.234 455.187C653.657 455.711 650.59 454.959 648.185 456.243C644.117 458.416 646.155 461.068 648.458 463.387Z" fill="#535070"/>
<path d="M625.264 468.519C624.985 467.964 624.596 467.471 624.12 467.07C623.424 466.63 622.633 466.361 621.812 466.287C618.951 465.802 615.559 465.482 613.584 467.607C611.732 469.598 612.051 472.843 610.502 475.078C610.012 475.786 609.348 476.369 608.923 477.117C608.396 478.262 608.158 479.518 608.231 480.775C608.151 484.24 608.071 487.71 608.311 491.168C608.511 494.065 609 497.1 610.814 499.37C613.726 503.013 618.977 503.537 623.638 503.773L627.413 503.965C628.452 504.091 629.507 503.994 630.506 503.682C631.125 503.396 631.68 502.989 632.138 502.486C632.597 501.982 632.949 501.391 633.175 500.749C635.14 495.871 632.028 490.616 630.111 485.719C627.908 480.09 628.304 473.841 625.264 468.519Z" fill="#535070"/>
<path d="M594.022 109.508C593.976 109.013 594.048 108.515 594.234 108.054C594.787 107.077 596.231 107.343 597.32 107.617C601.7 108.72 606.315 107.722 610.824 107.98C615.333 108.237 620.413 110.489 621.32 114.908C624.593 112.591 627.414 109.695 629.645 106.365C630.897 104.494 631.988 102.351 631.817 100.108C631.572 96.8724 628.853 94.4526 626.337 92.4006L618.834 86.2835C617.85 85.3797 616.712 84.6575 615.475 84.1505C613.742 83.5592 611.853 83.8409 610.022 83.8421C604.561 83.8456 598.738 81.3632 593.881 83.8569C591.852 84.8985 590.325 86.6836 588.853 88.4241L582.157 96.3406C581.653 96.8451 581.285 97.4687 581.086 98.1534C580.896 99.1197 581.393 100.073 581.566 101.043C581.882 102.811 581.12 104.699 581.706 106.397C582.68 109.217 586.107 109.616 588.203 111.232C588.984 111.835 590.208 113.877 591.138 113.852C592.817 113.807 593.978 110.81 594.022 109.508Z" fill="#3F3D56"/>
<path d="M605.384 132.843C617.226 132.843 626.826 123.255 626.826 111.427C626.826 99.5999 617.226 90.0119 605.384 90.0119C593.541 90.0119 583.941 99.5999 583.941 111.427C583.941 123.255 593.541 132.843 605.384 132.843Z" fill="#A0616A"/>
<path d="M610.406 158.296C609.678 156.214 608.306 154.419 606.488 153.169C604.669 151.919 602.5 151.281 600.294 151.346C599.663 151.463 599.01 151.38 598.428 151.11C598.099 150.857 597.836 150.529 597.662 150.153C596.358 147.811 595.31 145.336 594.535 142.771C594.193 141.637 593.726 140.301 592.578 140.006C592.102 139.944 591.619 140.012 591.179 140.203C590.74 140.394 590.36 140.701 590.082 141.091C589.536 141.875 588.94 142.623 588.298 143.33C585.601 145.738 580.82 143.543 577.958 145.753C577.491 146.114 577.105 146.576 576.614 146.904C576.122 147.2 575.593 147.426 575.039 147.578C569.512 149.38 564.094 151.5 558.811 153.926C560.715 165.378 562.666 177.03 567.129 187.749C569.253 192.85 571.659 197.845 573.36 203.102C577.128 214.75 577.295 227.212 577.338 239.452C577.367 247.83 577.325 256.386 574.611 264.313C573.881 266.065 573.367 267.899 573.079 269.774C572.915 271.663 573.465 273.746 574.998 274.865C575.886 275.445 576.902 275.802 577.959 275.904C582.661 276.593 587.402 275.343 592.032 274.272C604.442 271.402 617.098 269.759 629.731 268.121L650.899 265.376C652.416 265.273 653.901 264.89 655.278 264.245C659.152 262.127 659.52 256.308 657.114 252.609C655.961 250.836 654.334 249.381 653.365 247.501C652.396 245.621 652.313 242.992 653.981 241.69C657.375 239.041 656.362 234.127 656.524 229.829C656.977 217.811 656.916 205.788 656.341 193.76C656.171 191.27 656.131 188.774 656.221 186.28C656.597 182.054 657.379 177.874 658.556 173.797L664.988 148.503C663.307 145.851 660.09 144.169 657.043 143.405C653.995 142.641 650.821 142.416 647.819 141.487C641.67 139.584 636.196 134.755 629.774 135.205C629.289 135.214 628.811 135.33 628.376 135.546C626.928 136.365 627.157 138.45 627.064 140.11C626.86 143.782 624.155 146.852 621.168 149.004C618.182 151.155 614.771 152.725 612.028 155.179C611.542 155.545 611.144 156.014 610.863 156.554C610.583 157.093 610.426 157.688 610.406 158.296Z" fill="#3F3D56"/>
<path d="M525.444 182.288C524.023 183.209 522.512 183.986 520.934 184.606C519.39 185.065 517.93 185.772 516.614 186.7C516.007 187.224 515.498 187.852 515.111 188.554C514.386 189.839 514.019 191.296 514.049 192.771C514.079 194.247 514.505 195.687 515.282 196.942C516.06 198.197 517.161 199.221 518.47 199.906C519.779 200.591 521.248 200.913 522.723 200.837C524.685 200.618 526.591 200.05 528.352 199.161L543.476 192.616C546.036 191.508 548.801 190.21 550.01 187.699C550.151 187.465 550.204 187.188 550.158 186.919C550.036 186.634 549.815 186.402 549.537 186.266C546.125 184.054 543.142 181.244 540.73 177.973C540.11 177.132 539.351 175.145 538.474 174.64C535.272 172.799 528.007 180.627 525.444 182.288Z" fill="#A0616A"/>
<path d="M687.122 176.917L692.698 183.278C693.895 184.644 695.093 186.011 696.184 187.463C698.864 191.151 701.013 195.195 702.57 199.478C703.782 202.655 704.788 206.038 704.365 209.411C704.083 211.14 703.616 212.834 702.97 214.462C701.948 217.595 700.681 220.642 699.181 223.576C697.92 225.805 696.495 227.938 694.918 229.957C690.601 235.672 685.877 241.068 680.783 246.105C678.877 247.989 678.078 251.036 677.248 253.584C675.718 258.283 672.076 261.943 668.554 265.413C667.422 266.607 666.171 267.682 664.821 268.621C662.798 269.923 660.433 270.595 658.027 270.554C656.974 270.561 655.931 270.346 654.967 269.921C652.557 268.778 651.332 265.995 651.081 263.342C650.857 260.935 651.261 258.51 652.254 256.305C655.453 249.226 663.669 246.159 669.477 240.994C672.883 237.965 675.487 234.161 678.055 230.398C679.8 228.048 681.256 225.498 682.394 222.803C683.691 219.346 683.186 215.254 684.319 211.741C684.798 210.256 685.649 208.915 686.164 207.442C686.679 205.969 686.809 204.22 685.908 202.945C685.229 202.135 684.362 201.502 683.384 201.1C679.674 199.219 675.518 196.799 674.808 192.704C674.525 190.434 675.119 188.141 676.47 186.292C677.815 184.468 679.387 182.823 681.148 181.395C682.771 179.962 685.499 178.35 687.122 176.917Z" fill="#A0616A"/>
<path d="M521.865 191.168C520.88 189.182 519.649 187.155 517.663 186.167C516.7 185.75 515.661 185.532 514.611 185.528C513.561 185.523 512.521 185.732 511.555 186.142C509.628 186.971 507.825 188.061 506.194 189.379L501.388 192.917C500.299 193.631 499.335 194.52 498.535 195.548C497.777 196.795 497.272 198.178 497.049 199.62C496.211 202.908 495.956 206.317 496.293 209.693C497.056 215.106 500.324 219.831 503.92 223.951C506.167 226.526 508.942 229.124 512.36 229.234C513.836 229.282 515.477 228.701 516.09 227.36C516.303 226.828 516.416 226.262 516.424 225.69C516.793 219.652 514.63 213.755 512.109 208.255C511.305 206.815 510.829 205.215 510.717 203.57C510.699 203.294 510.771 203.018 510.923 202.786C511.14 202.56 511.431 202.418 511.743 202.386C515.195 201.704 521.14 204.382 523.561 200.554C525.131 198.072 522.98 193.418 521.865 191.168Z" fill="#A0616A"/>
<path d="M592.897 102.769C592.851 102.274 592.924 101.776 593.11 101.315C593.663 100.339 595.106 100.605 596.195 100.879C600.575 101.982 605.19 100.983 609.699 101.241C614.209 101.499 619.288 103.75 620.195 108.17C623.468 105.852 626.29 102.957 628.521 99.6259C629.772 97.7553 630.863 95.6127 630.693 93.3694C630.447 90.1338 627.729 87.714 625.212 85.6619L617.71 79.5448C616.725 78.641 615.588 77.9188 614.35 77.4118C612.618 76.8205 610.729 77.1022 608.898 77.1034C603.436 77.1069 597.614 74.6246 592.757 77.1182C590.728 78.1599 589.2 79.9449 587.728 81.6854L581.032 89.6019C580.528 90.1065 580.16 90.7301 579.962 91.4148C579.771 92.3811 580.268 93.3347 580.442 94.3043C580.758 96.0728 579.995 97.9603 580.582 99.6587C581.555 102.478 584.983 102.877 587.078 104.494C587.859 105.096 589.083 107.138 590.014 107.113C591.693 107.068 592.854 104.072 592.897 102.769Z" fill="#3F3D56"/>
<path d="M547.356 161.457C546.49 162.015 545.73 162.721 545.111 163.544C544.325 164.731 544.166 166.23 543.49 167.483C542.045 170.165 538.665 171.119 536.557 173.32C536.222 173.622 535.989 174.021 535.89 174.461C535.88 175.058 536.081 175.64 536.457 176.104L546.625 192.069C550.01 192.367 553.258 190.249 556.645 190.53C557.909 190.635 559.203 191.071 560.416 190.698C561.284 190.313 562.098 189.816 562.836 189.22C564.857 187.944 567.548 187.795 569.243 186.111C570.87 184.496 571.078 181.968 571.058 179.677C571.085 177.687 570.883 175.7 570.454 173.757C568.957 167.629 564.264 162.927 561.323 157.498C559.89 154.856 559.111 153.308 556.08 155.123C553.033 156.947 550.224 159.363 547.356 161.457Z" fill="#3F3D56"/>
<path d="M670.843 153.384C672.754 154.623 674.477 156.13 675.958 157.859C677.507 159.854 678.385 162.295 679.873 164.336C681.315 166.314 683.278 167.845 684.914 169.667C687.395 172.429 689.076 175.799 690.726 179.124C686.695 184.374 682.3 189.335 677.573 193.97C677.047 194.589 676.354 195.044 675.576 195.281C675.047 195.337 674.512 195.262 674.02 195.061C673.527 194.86 673.092 194.541 672.753 194.132C672.021 193.364 671.502 192.418 670.802 191.621C669.149 189.919 666.947 188.855 664.585 188.619C662.244 188.393 659.888 188.36 657.542 188.522C657.027 188.579 656.506 188.492 656.038 188.269C655.69 188.029 655.407 187.706 655.217 187.329C652.464 182.651 653.35 176.776 654.321 171.437L656.549 159.185C656.872 156.845 657.496 154.557 658.404 152.376C659.248 150.574 661.136 147.519 663.457 148.058C665.797 148.602 668.875 151.97 670.843 153.384Z" fill="#3F3D56"/>
<path d="M262.91 233.831C281.633 233.831 296.812 218.644 296.812 199.91C296.812 181.176 281.633 165.989 262.91 165.989C244.186 165.989 229.008 181.176 229.008 199.91C229.008 218.644 244.186 233.831 262.91 233.831Z" fill="white"/>
<path d="M262.91 160.208C254.896 160.208 247.063 162.581 240.4 167.027C233.737 171.474 228.543 177.794 225.477 185.188C222.41 192.583 221.608 200.719 223.171 208.569C224.734 216.419 228.593 223.629 234.26 229.288C239.926 234.948 247.146 238.802 255.005 240.363C262.865 241.925 271.011 241.123 278.415 238.06C285.818 234.998 292.146 229.811 296.598 223.156C301.05 216.502 303.427 208.678 303.427 200.674C303.395 189.951 299.116 179.677 291.525 172.095C283.933 164.513 273.646 160.239 262.91 160.208ZM254.592 222.25L233.827 201.511L239.651 195.694L254.611 210.635L286.188 179.099L292.012 184.916L254.592 222.25L254.592 222.25Z" fill="#57B894"/>
</g>
<defs>
<clipPath id="clip0">
<rect width="838" height="504" fill="white"/>
</clipPath>
</defs>
</svg>
