<svg width="658" height="509" viewBox="0 0 658 509" fill="none" xmlns="http://www.w3.org/2000/svg">
<g clip-path="url(#clip0)">
<g opacity="0.8">
<path opacity="0.8" d="M600.3 483.282H34.0441V117.242C34.0441 114.181 35.261 111.244 37.4271 109.08C39.5932 106.915 42.531 105.698 45.5943 105.698H588.75C591.813 105.698 594.751 106.915 596.917 109.08C599.083 111.244 600.3 114.181 600.3 117.242V483.282Z" fill="url(#paint0_linear)"/>
</g>
<path d="M53.3652 112.347H580.942C584.005 112.347 586.943 113.563 589.109 115.728C591.276 117.893 592.492 120.829 592.492 123.891V483.282H41.8442V123.898C41.8422 120.84 43.0543 117.907 45.2142 115.741C47.3742 113.576 50.3057 112.355 53.3652 112.347Z" fill="white"/>
<path d="M574.765 133.93H59.5717V471.658H574.765V133.93Z" fill="#F5F5F5"/>
<path opacity="0.8" d="M574.553 150.325H61.5454V454.174H574.553V150.325Z" fill="#E0E0E0"/>
<path d="M574.553 134.178H61.5454V150.325H574.553V134.178Z" fill="#F5F5F5"/>
<path d="M72.5474 145.926C74.7114 145.926 76.4657 144.173 76.4657 142.01C76.4657 139.848 74.7114 138.094 72.5474 138.094C70.3834 138.094 68.6291 139.848 68.6291 142.01C68.6291 144.173 70.3834 145.926 72.5474 145.926Z" fill="#FF5252"/>
<path d="M83.3155 145.926C85.4795 145.926 87.2338 144.173 87.2338 142.01C87.2338 139.848 85.4795 138.094 83.3155 138.094C81.1514 138.094 79.3972 139.848 79.3972 142.01C79.3972 144.173 81.1514 145.926 83.3155 145.926Z" fill="#FFFF00"/>
<path d="M94.0909 145.926C96.2549 145.926 98.0092 144.173 98.0092 142.01C98.0092 139.848 96.2549 138.094 94.0909 138.094C91.9268 138.094 90.1725 139.848 90.1725 142.01C90.1725 144.173 91.9268 145.926 94.0909 145.926Z" fill="#69F0AE"/>
<g opacity="0.8">
<path opacity="0.8" d="M616.141 507.553C584.619 509.943 43.2916 509.015 24.3799 507.553C-0.416661 495.608 0.0365745 449.257 0.0365745 449.257L248.294 447.599L249.128 461.707H355.361L359.513 449.287H634.629C634.629 449.287 640.097 491.779 616.141 507.553Z" fill="url(#paint1_linear)"/>
</g>
<path d="M630.601 452.991H360.851C361.89 454.192 362.562 455.667 362.785 457.239C363.009 458.811 362.776 460.414 362.113 461.857C361.45 463.3 360.386 464.523 359.048 465.378C357.709 466.234 356.153 466.687 354.564 466.683H251.577C249.988 466.687 248.431 466.234 247.093 465.378C245.754 464.523 244.69 463.3 244.028 461.857C243.365 460.414 243.132 458.811 243.355 457.239C243.579 455.667 244.251 454.192 245.29 452.991H3.73556C3.73556 452.991 3.31888 493.241 27.8157 503.645C46.4935 504.887 581.205 505.719 612.34 503.645C636.033 489.916 630.601 452.991 630.601 452.991Z" fill="#F5F5F5"/>
<path d="M59.7836 465.024C61.6166 465.024 63.1025 463.539 63.1025 461.707C63.1025 459.875 61.6166 458.39 59.7836 458.39C57.9506 458.39 56.4647 459.875 56.4647 461.707C56.4647 463.539 57.9506 465.024 59.7836 465.024Z" fill="#E0E0E0"/>
<path d="M69.7476 465.024C71.5805 465.024 73.0665 463.539 73.0665 461.707C73.0665 459.875 71.5805 458.39 69.7476 458.39C67.9146 458.39 66.4287 459.875 66.4287 461.707C66.4287 463.539 67.9146 465.024 69.7476 465.024Z" fill="#E0E0E0"/>
<path d="M79.7042 465.024C81.5372 465.024 83.0231 463.539 83.0231 461.707C83.0231 459.875 81.5372 458.39 79.7042 458.39C77.8712 458.39 76.3853 459.875 76.3853 461.707C76.3853 463.539 77.8712 465.024 79.7042 465.024Z" fill="#E0E0E0"/>
<path d="M306.945 274.603H330.477C357.523 274.603 383.462 285.341 402.587 304.455C421.711 323.569 432.455 349.493 432.455 376.524V450.616H204.966V376.524C204.966 349.493 215.71 323.569 234.835 304.455C253.96 285.341 279.898 274.603 306.945 274.603Z" fill="#A8050A"/>
<path d="M318.934 234.974C376.353 234.974 422.901 188.453 422.901 131.066C422.901 73.6787 376.353 27.1572 318.934 27.1572C261.514 27.1572 214.967 73.6787 214.967 131.066C214.967 188.453 261.514 234.974 318.934 234.974Z" fill="#333333"/>
<path opacity="0.1" d="M303.626 244.341H333.693C339.316 244.341 344.708 246.573 348.684 250.547C352.66 254.52 354.893 259.909 354.893 265.529V286.176C354.893 294.768 351.478 303.008 345.399 309.083C339.321 315.159 331.076 318.572 322.479 318.572H314.811C306.214 318.572 297.969 315.159 291.891 309.083C285.812 303.008 282.397 294.768 282.397 286.176V265.558C282.397 259.939 284.63 254.549 288.606 250.576C292.582 246.602 297.974 244.37 303.597 244.37L303.626 244.341Z" fill="black"/>
<path d="M282.397 242.222H354.93V284.086C354.93 292.678 351.515 300.918 345.436 306.994C339.357 313.069 331.112 316.482 322.516 316.482H314.811C306.214 316.482 297.969 313.069 291.891 306.994C285.812 300.918 282.397 292.678 282.397 284.086V242.222Z" fill="#FDB797"/>
<path opacity="0.1" d="M282.528 252.677C305.905 261.405 331.637 261.475 355.061 252.874V243.975H282.528V252.677Z" fill="black"/>
<path d="M318.934 257.528C376.353 257.528 422.901 211.007 422.901 153.62C422.901 96.2326 376.353 49.7112 318.934 49.7112C261.514 49.7112 214.967 96.2326 214.967 153.62C214.967 211.007 261.514 257.528 318.934 257.528Z" fill="#FDB797"/>
<path opacity="0.1" d="M219.536 116.84H417.791C417.791 116.84 400.868 36.8305 325.915 41.8936C250.963 46.9568 219.536 116.84 219.536 116.84Z" fill="black"/>
<path d="M219.536 114.152H417.791C417.791 114.152 400.868 34.1419 325.915 39.2416C250.963 44.3414 219.536 114.152 219.536 114.152Z" fill="#333333"/>
<path d="M217.116 167.319C222.457 167.319 226.787 159.203 226.787 149.192C226.787 139.181 222.457 131.066 217.116 131.066C211.774 131.066 207.444 139.181 207.444 149.192C207.444 159.203 211.774 167.319 217.116 167.319Z" fill="#FDB797"/>
<path d="M420.211 167.319C425.552 167.319 429.882 159.203 429.882 149.192C429.882 139.181 425.552 131.066 420.211 131.066C414.869 131.066 410.539 139.181 410.539 149.192C410.539 159.203 414.869 167.319 420.211 167.319Z" fill="#FDB797"/>
<path d="M234.924 61.1381C237.3 53.379 241.62 45.9632 248.287 41.3384C253.353 37.8241 259.413 36.1364 265.225 34.076C273.824 31.0307 282.077 27.0853 289.846 22.3058C298.662 16.8773 306.945 10.3382 316.653 6.7509C333.357 0.577172 351.962 3.9161 369.207 8.34365C373.454 9.43227 377.752 10.6159 381.495 12.91C385.83 15.5622 389.156 19.5513 392.402 23.4601L419.772 56.4549C422.279 59.4723 424.801 62.5263 426.571 66.0333C428.221 69.4302 429.274 73.0854 429.685 76.8391C430.416 82.8887 429.846 89.3035 426.761 94.5713C422.133 102.469 412.593 106.437 403.448 106.802C394.303 107.167 385.326 104.515 376.539 101.943C348.204 93.6507 319.519 85.9207 290.131 82.4795C275.547 80.6808 260.83 80.2039 246.16 81.0548C241.554 81.3544 235.472 83.4658 232.672 78.7753C230.252 74.7057 233.674 65.215 234.924 61.1381Z" fill="#333333"/>
<path opacity="0.05" d="M249.5 369.941V450.616" stroke="black" stroke-width="4" stroke-miterlimit="10"/>
<path opacity="0.05" d="M389.741 369.941V450.616" stroke="black" stroke-width="4" stroke-miterlimit="10"/>
<g opacity="0.8">
<path opacity="0.8" d="M658 145.006H527.54L483.51 181.698V145.006H454.16V0H658V145.006Z" fill="url(#paint2_linear)"/>
</g>
<path d="M655.237 1.72412H456.923V140.388H655.237V1.72412Z" fill="white"/>
<path d="M636.391 22.1084H479.256V26.2291H636.391V22.1084Z" fill="#E0E0E0"/>
<path d="M587.287 40.6663H479.256V44.7869H587.287V40.6663Z" fill="#E0E0E0"/>
<path d="M608.897 59.2166H479.256V63.3372H608.897V59.2166Z" fill="#E0E0E0"/>
<path d="M583.362 77.7744H479.256V81.8951H583.362V77.7744Z" fill="#A8050A"/>
<path d="M636.391 96.3247H479.256V100.445H636.391V96.3247Z" fill="#A8050A"/>
<path d="M636.391 114.883H479.256V119.003H636.391V114.883Z" fill="#E0E0E0"/>
<path d="M490.85 137.692V174.369L531.21 134.025L490.85 137.692Z" fill="white"/>
</g>
<defs>
<linearGradient id="paint0_linear" x1="317.172" y1="483.282" x2="317.172" y2="105.713" gradientUnits="userSpaceOnUse">
<stop stop-color="#808080" stop-opacity="0.25"/>
<stop offset="0.54" stop-color="#808080" stop-opacity="0.12"/>
<stop offset="1" stop-color="#808080" stop-opacity="0.1"/>
</linearGradient>
<linearGradient id="paint1_linear" x1="371157" y1="49480.7" x2="371157" y2="44318.4" gradientUnits="userSpaceOnUse">
<stop stop-color="#808080" stop-opacity="0.25"/>
<stop offset="0.54" stop-color="#808080" stop-opacity="0.12"/>
<stop offset="1" stop-color="#808080" stop-opacity="0.1"/>
</linearGradient>
<linearGradient id="paint2_linear" x1="155511" y1="45186.4" x2="155511" y2="0" gradientUnits="userSpaceOnUse">
<stop stop-color="#808080" stop-opacity="0.25"/>
<stop offset="0.54" stop-color="#808080" stop-opacity="0.12"/>
<stop offset="1" stop-color="#808080" stop-opacity="0.1"/>
</linearGradient>
<clipPath id="clip0">
<rect width="658" height="509" fill="white"/>
</clipPath>
</defs>
</svg>
