<svg width="644" height="533" viewBox="0 0 644 533" fill="none" xmlns="http://www.w3.org/2000/svg">
<g clip-path="url(#clip0)">
<path d="M97.8109 428.767C97.8109 460.993 78.6479 472.247 55.0108 472.247C54.4605 472.247 53.9131 472.241 53.3687 472.226C52.274 472.202 51.1883 472.155 50.1174 472.077C28.7827 470.57 12.2076 458.736 12.2076 428.767C12.2076 397.754 51.8427 358.619 54.8323 355.713L54.8382 355.71C54.9513 355.597 55.0108 355.541 55.0108 355.541C55.0108 355.541 97.8109 396.538 97.8109 428.767Z" fill="#3F3D56"/>
<path d="M53.4491 467.316L69.105 445.448L53.4104 469.716L53.3688 472.226C52.2741 472.202 51.1883 472.155 50.1174 472.077L51.8041 439.836L51.7922 439.586L51.8219 439.539L51.9796 436.493L36.2463 412.163L52.0272 434.209L52.0659 434.855L53.342 410.495L39.8725 385.355L53.5056 406.215L54.8323 355.713L54.8383 355.541V355.71L54.6181 395.535L68.0252 379.746L54.5616 398.964L54.2076 420.776L66.7282 399.845L54.1541 423.988L53.9578 436.113L72.1333 406.976L53.8894 440.345L53.4491 467.316Z" fill="#F2F2F2"/>
<g opacity="0.7">
<path opacity="0.7" d="M594.239 202.884V195.123H555.423V231.019C555.423 233.026 556.22 234.95 557.64 236.37C559.059 237.789 560.985 238.586 562.992 238.586H586.67C588.677 238.586 590.602 237.789 592.022 236.37C593.441 234.95 594.239 233.026 594.239 231.019V223.063C596.915 223.063 599.482 222 601.375 220.108C603.267 218.216 604.331 215.65 604.331 212.974C604.331 210.298 603.267 207.732 601.375 205.839C599.482 203.947 596.915 202.884 594.239 202.884ZM594.239 219.183V206.765C595.886 206.765 597.465 207.419 598.63 208.583C599.795 209.748 600.449 211.327 600.449 212.974C600.449 214.621 599.795 216.2 598.63 217.364C597.465 218.529 595.886 219.183 594.239 219.183Z" fill="url(#paint0_linear)"/>
</g>
<path d="M592.99 204.099C591.167 204.099 589.386 204.639 587.87 205.652C586.355 206.664 585.174 208.103 584.477 209.786C583.779 211.469 583.597 213.321 583.952 215.108C584.308 216.895 585.185 218.537 586.474 219.825C587.763 221.114 589.405 221.991 591.192 222.347C592.979 222.702 594.832 222.52 596.516 221.822C598.2 221.125 599.639 219.944 600.651 218.429C601.664 216.914 602.204 215.133 602.204 213.311C602.204 210.868 601.233 208.525 599.505 206.797C597.777 205.07 595.433 204.099 592.99 204.099ZM592.99 218.98C591.868 218.98 590.772 218.648 589.839 218.025C588.907 217.402 588.18 216.517 587.751 215.481C587.322 214.445 587.209 213.305 587.428 212.205C587.647 211.106 588.187 210.095 588.98 209.303C589.773 208.51 590.783 207.97 591.883 207.751C592.983 207.532 594.123 207.645 595.16 208.074C596.196 208.503 597.081 209.229 597.704 210.162C598.328 211.094 598.66 212.19 598.66 213.311C598.66 214.815 598.063 216.257 596.999 217.32C595.936 218.383 594.494 218.98 592.99 218.98Z" fill="#A8050A"/>
<path opacity="0.1" d="M592.99 204.099C591.167 204.099 589.386 204.639 587.87 205.652C586.355 206.664 585.174 208.103 584.477 209.786C583.779 211.469 583.597 213.321 583.952 215.108C584.308 216.895 585.185 218.537 586.474 219.825C587.763 221.114 589.405 221.991 591.192 222.347C592.979 222.702 594.832 222.52 596.516 221.822C598.2 221.125 599.639 219.944 600.651 218.429C601.664 216.914 602.204 215.133 602.204 213.311C602.204 210.868 601.233 208.525 599.505 206.797C597.777 205.07 595.433 204.099 592.99 204.099ZM592.99 218.98C591.868 218.98 590.772 218.648 589.839 218.025C588.907 217.402 588.18 216.517 587.751 215.481C587.322 214.445 587.209 213.305 587.428 212.205C587.647 211.106 588.187 210.095 588.98 209.303C589.773 208.51 590.783 207.97 591.883 207.751C592.983 207.532 594.123 207.645 595.16 208.074C596.196 208.503 597.081 209.229 597.704 210.162C598.328 211.094 598.66 212.19 598.66 213.311C598.66 214.815 598.063 216.257 596.999 217.32C595.936 218.383 594.494 218.98 592.99 218.98Z" fill="black"/>
<path d="M557.549 197.013H592.99V229.751C592.99 231.593 592.258 233.359 590.955 234.662C589.652 235.965 587.885 236.696 586.043 236.696H564.497C562.654 236.696 560.887 235.965 559.584 234.662C558.281 233.359 557.549 231.593 557.549 229.751V197.013Z" fill="#A8050A"/>
<path opacity="0.1" d="M586.61 197.013V229.787C586.61 231.62 585.882 233.377 584.586 234.673C583.29 235.968 581.532 236.696 579.7 236.696H583.244C585.076 236.696 586.834 235.968 588.13 234.673C589.426 233.377 590.154 231.62 590.154 229.787V197.013H586.61Z" fill="black"/>
<path d="M564.543 170.597C564.24 170.607 563.943 170.683 563.672 170.82C563.402 170.957 563.165 171.152 562.978 171.391C562.513 172.234 563.356 173.184 564.124 173.763C565.545 174.832 567.042 175.883 568.007 177.376C568.972 178.869 569.276 180.952 568.22 182.383C566.842 184.251 563.555 184.653 563.237 186.952C563.032 188.428 564.309 189.688 565.602 190.429C568.795 192.257 572.91 192.745 575.222 195.605C576.179 193.639 578.318 192.502 580.451 192.017C582.584 191.531 584.799 191.568 586.962 191.238C587.315 191.231 587.662 191.142 587.974 190.976C588.286 190.811 588.554 190.574 588.758 190.286C589.363 189.059 587.64 187.588 588.234 186.357C588.687 185.42 590.016 185.493 590.987 185.117C592.568 184.506 593.22 182.473 592.771 180.839C592.322 179.205 591.055 177.928 589.723 176.881C586.131 174.06 581.813 172.4 577.445 171.207C575.414 170.652 573.029 169.781 570.919 169.697C568.882 169.616 566.559 170.252 564.543 170.597Z" fill="#EEEEEE"/>
<path d="M315.8 245.064L241.696 475.869" stroke="#E0E0E0" stroke-width="8" stroke-miterlimit="10"/>
<g opacity="0.7">
<path opacity="0.7" d="M373.214 501.864C364.099 502.392 355.979 510.026 355.979 510.026L352.052 500.288L351.732 500.392C353.65 491.997 392.678 318.94 353.609 304.021C323.587 292.557 291.744 278.37 266.795 278.903V238.021H301.772V236.564H329.463C334.771 232.773 327.058 230.167 318.438 228.538C318.789 228.136 319.098 227.699 319.361 227.235L363.711 147.685C363.711 147.685 373.913 130.929 367.355 122.915C360.796 114.901 351.323 143.314 351.323 143.314L314.889 195.767C314.889 195.767 278.116 157.449 254.724 138.393C252.128 135.821 249.199 133.608 246.015 131.813C241.745 128.924 238.513 127.428 236.919 128.015C236.903 128.021 236.89 128.031 236.873 128.037C233.328 127.056 229.667 126.558 225.989 126.558H223.074V120.58C229.603 118.424 235.576 114.855 240.568 110.126C245.559 105.398 249.445 99.6268 251.95 93.2245C256.061 86.4177 258.571 78.7663 259.292 70.8478C260.013 62.9293 258.925 54.9505 256.111 47.5136C256.546 47.4623 256.965 47.3174 257.338 47.0889C258.658 46.2395 258.789 44.3816 258.661 42.8176C258.183 37.5686 256.432 32.5151 253.562 28.0942C250.691 23.6732 246.786 20.0178 242.186 17.4441C238.494 15.4258 234.265 14.0351 231.543 10.8273C229.204 8.07098 228.221 4.21591 225.39 1.96692C222.027 -0.704913 217.169 -0.24559 213.042 0.946619C208.45 2.27503 204.099 4.32765 200.154 7.02703C195.69 10.0836 191.661 14.0104 186.522 15.7022C182.871 16.9043 178.911 16.8804 175.236 18.0097C172.416 18.9031 169.844 20.4439 167.727 22.5089C165.609 24.5739 164.004 27.1057 163.04 29.9019C162.105 32.9058 161.751 36.0605 161.997 39.197C159.762 42.9315 158.004 46.9308 156.762 51.1019C156.488 51.2504 156.211 51.3956 155.939 51.5487L156.738 51.1895C153.95 60.5951 153.858 70.5938 156.47 80.0494C159.083 89.5049 164.296 98.0384 171.517 104.68C177.223 112.107 185.031 117.646 193.926 120.58V127.811C187.58 129.18 181.525 131.659 176.042 135.134L176.034 135.125C176.034 135.125 175.569 135.412 174.773 135.948C174.693 136.001 174.613 136.055 174.534 136.109C169.142 139.768 151.073 153.137 151.684 167.583C151.66 168.138 151.663 168.696 151.693 169.255C150.707 173.429 150.207 177.704 150.205 181.994V286.832C150.191 298.416 154.085 309.666 161.257 318.764C146.051 322.172 136.36 327.325 136.36 333.093C136.436 333.576 136.436 334.067 136.36 334.55C136.36 344.81 167.027 353.127 204.857 353.127C209.431 353.127 213.898 353.005 218.221 352.773L260.966 387.368L192.469 497.374C192.469 497.374 169.879 514.859 187.368 520.687C204.856 526.515 240.562 530.886 240.562 530.886C240.562 530.886 246.392 520.687 238.376 516.316C230.361 511.944 219.43 514.13 219.43 514.13L220.888 505.388C220.888 505.388 339.664 403.395 314.889 368.426C310.149 361.736 305.409 354.833 300.628 348.038L319.326 349.742L323.581 509.85L324.113 509.677C323.045 512.822 315.491 536.561 332.236 532.544C350.161 528.243 382.777 513.074 382.777 513.074C382.777 513.074 382.33 501.335 373.214 501.864ZM301.772 226.365L266.795 216.212V186.296L304.811 226.642C302.942 226.455 301.772 226.365 301.772 226.365Z" fill="url(#paint1_linear)"/>
</g>
<path d="M208.208 121.825C236.541 121.825 259.51 98.862 259.51 70.5353C259.51 42.2086 236.541 19.2452 208.208 19.2452C179.874 19.2452 156.906 42.2086 156.906 70.5353C156.906 98.862 179.874 121.825 208.208 121.825Z" fill="black"/>
<path d="M266.635 188.075L305.786 229.626C306.611 230.501 307.63 231.169 308.761 231.577C309.892 231.984 311.103 232.119 312.297 231.971C313.49 231.823 314.631 231.396 315.628 230.724C316.625 230.053 317.45 229.155 318.035 228.105L361.402 150.32L349.288 146.046L313.662 197.336C313.662 197.336 246.779 127.641 237.421 131.086C228.064 134.532 266.635 188.075 266.635 188.075Z" fill="#A8050A"/>
<path d="M191.819 331.972L134.104 481.568" stroke="#BDBDBD" stroke-width="5" stroke-miterlimit="10"/>
<path d="M220.321 331.972L278.036 481.568" stroke="#BDBDBD" stroke-width="5" stroke-miterlimit="10"/>
<path d="M206.07 351.206C243.061 351.206 273.048 343.073 273.048 333.041C273.048 323.008 243.061 314.875 206.07 314.875C169.079 314.875 139.092 323.008 139.092 333.041C139.092 343.073 169.079 351.206 206.07 351.206Z" fill="#B84733"/>
<path d="M206.07 349.781C243.061 349.781 273.048 341.648 273.048 331.616C273.048 321.584 243.061 313.451 206.07 313.451C169.079 313.451 139.092 321.584 139.092 331.616C139.092 341.648 169.079 349.781 206.07 349.781Z" fill="#F55F44"/>
<path d="M177.887 364.839L241.081 384.308" stroke="#BDBDBD" stroke-width="5" stroke-miterlimit="10"/>
<path d="M234.253 364.839L171.059 384.308" stroke="#BDBDBD" stroke-width="5" stroke-miterlimit="10"/>
<path d="M206.85 129.661H226.733C237.316 129.661 247.465 133.864 254.948 141.345C262.431 148.827 266.635 158.973 266.635 169.554V274.983H152.63V183.868C152.63 169.492 158.343 155.704 168.511 145.538C178.679 135.372 192.47 129.661 206.85 129.661Z" fill="#A8050A"/>
<path d="M152.63 274.983H266.635V336.959H203.22C189.803 336.959 176.935 331.63 167.448 322.145C157.96 312.66 152.63 299.795 152.63 286.381V274.983Z" fill="#39447A"/>
<path opacity="0.05" d="M154.17 172.431L223.883 238.653H300.836V228.68L234.571 209.446L177.887 139.463C177.887 139.463 152.147 155.362 154.17 172.431Z" fill="black"/>
<path d="M154.17 171.006L223.883 237.228H300.836V227.255L234.571 208.021L177.887 138.039C177.887 138.039 152.147 153.938 154.17 171.006Z" fill="#A8050A"/>
<path d="M300.836 227.255C300.836 227.255 337.888 230.104 327.913 237.228H300.836V227.255Z" fill="#FDA57D"/>
<path d="M349.288 146.046C349.288 146.046 358.551 118.264 364.964 126.099C371.377 133.935 361.401 150.32 361.401 150.32L349.288 146.046Z" fill="#FDA57D"/>
<path opacity="0.05" d="M152.63 274.983V278.308L266.635 278.545V274.983H152.63Z" fill="black"/>
<path d="M241.313 340.908L318.001 347.895L322.161 504.453L349.616 495.517C349.616 495.517 390.676 318.14 351.523 303.189C312.369 288.237 270.046 268.549 244.777 284.594C219.508 300.639 241.313 340.908 241.313 340.908Z" fill="#39447A"/>
<path opacity="0.1" d="M245.972 292.792C245.972 292.792 288.011 314.163 293.711 338.383L245.972 292.792Z" fill="black"/>
<path d="M201.083 336.246L260.935 384.687L193.957 492.253L221.746 500.089C221.746 500.089 337.888 400.359 313.662 366.165C289.436 331.972 265.21 292.08 235.284 291.367C205.358 290.655 201.083 336.246 201.083 336.246Z" fill="#39447A"/>
<path opacity="0.05" d="M295.136 178.814L310.099 204.459L313.662 197.336L295.136 178.814Z" fill="black"/>
<path d="M193.957 492.253C193.957 492.253 171.869 509.35 188.969 515.049C206.07 520.748 240.984 525.022 240.984 525.022C240.984 525.022 246.684 515.049 238.846 510.775C231.009 506.501 220.321 508.638 220.321 508.638L221.746 500.089L193.957 492.253Z" fill="#333333"/>
<path d="M322.798 503.947C322.798 503.947 313.096 530.848 330.624 526.643C348.152 522.438 380.045 507.605 380.045 507.605C380.045 507.605 379.607 496.127 370.694 496.643C361.781 497.16 353.84 504.625 353.84 504.625L350.001 495.103L322.798 503.947Z" fill="#333333"/>
<path d="M209.633 104.729H209.633C201.762 104.729 195.382 111.107 195.382 118.976V133.223C195.382 141.092 201.762 147.47 209.633 147.47H209.633C217.503 147.47 223.883 141.092 223.883 133.223V118.976C223.883 111.107 217.503 104.729 209.633 104.729Z" fill="#FDA57D"/>
<path opacity="0.05" d="M209.633 106.153C205.853 106.153 202.229 107.654 199.556 110.326C196.884 112.998 195.382 116.622 195.382 120.401V125.241C204.639 128.285 214.627 128.285 223.883 125.241V120.401C223.883 116.622 222.382 112.998 219.709 110.326C217.037 107.654 213.412 106.153 209.633 106.153Z" fill="black"/>
<path d="M209.633 126.1C234.818 126.1 255.235 105.688 255.235 80.5084C255.235 55.3291 234.818 34.9172 209.633 34.9172C184.447 34.9172 164.031 55.3291 164.031 80.5084C164.031 105.688 184.447 126.1 209.633 126.1Z" fill="#FDA57D"/>
<path opacity="0.05" d="M164.031 78.4396C164.031 78.4396 175.431 81.3768 181.844 68.4226C188.257 55.4684 193.245 48.4025 219.608 56.0573C245.972 63.712 251.275 64.646 252.542 57.4075C253.408 52.4612 244.034 40.4468 238.01 33.3336C235.071 29.8636 230.276 27.7936 225.15 27.7936H195.382L177.569 36.0372L164.031 47.8137L161.181 63.7121L164.031 78.4396Z" fill="black"/>
<path d="M164.031 77.0149C164.031 77.0149 175.431 79.9521 181.844 66.9979C188.257 54.0437 193.245 46.9778 219.608 54.6326C245.972 62.2873 251.275 63.2213 252.542 55.9828C253.408 51.0365 244.034 39.0221 238.01 31.9089C235.071 28.4389 230.276 26.3689 225.15 26.3689H195.382L177.569 34.6125L164.031 46.389L161.181 62.2873L164.031 77.0149Z" fill="black"/>
<path d="M168.662 86.2073C171.22 86.2073 173.294 82.0611 173.294 76.9466C173.294 71.832 171.22 67.6859 168.662 67.6859C166.104 67.6859 164.031 71.832 164.031 76.9466C164.031 82.0611 166.104 86.2073 168.662 86.2073Z" fill="#FDA57D"/>
<path d="M165.352 53.1175C164.295 47.1541 163.257 40.8921 165.181 35.1494C166.123 32.4153 167.693 29.9396 169.764 27.9204C171.834 25.9012 174.349 24.3945 177.107 23.521C180.7 22.4167 184.572 22.4401 188.142 21.2647C193.167 19.6103 197.107 15.7707 201.471 12.7819C205.329 10.1423 209.583 8.13525 214.074 6.83631C218.109 5.67053 222.859 5.22139 226.148 7.834C228.916 10.0331 229.877 13.8026 232.164 16.4979C234.827 19.6345 238.961 20.9943 242.571 22.968C247.07 25.4846 250.888 29.0588 253.695 33.3817C256.502 37.7046 258.213 42.646 258.681 47.7786C258.806 49.3079 258.678 51.1247 257.388 51.9552C256.586 52.3628 255.683 52.5276 254.789 52.4294C236.564 52.169 218.316 51.9075 200.166 50.2348C194.523 49.7147 188.87 49.0578 183.207 49.2723C174.444 49.6138 165.887 52.0278 158.237 56.3161" fill="black"/>
<path d="M86.4308 459.664H23.3597C10.4585 459.664 0 470.12 0 483.018V483.018C0 495.916 10.4585 506.372 23.3597 506.372H86.4308C99.332 506.372 109.79 495.916 109.79 483.018C109.79 470.12 99.332 459.664 86.4308 459.664Z" fill="#A8050A"/>
<path d="M410.328 292.911C410.606 292.901 410.868 292.785 411.061 292.585C411.253 292.386 411.361 292.12 411.361 291.842C411.361 291.565 411.253 291.299 411.061 291.1C410.868 290.9 410.606 290.783 410.328 290.774C410.051 290.783 409.789 290.9 409.596 291.1C409.404 291.299 409.296 291.565 409.296 291.842C409.296 292.12 409.404 292.386 409.596 292.585C409.789 292.785 410.051 292.901 410.328 292.911Z" fill="url(#paint2_linear)"/>
<path d="M567.153 245.064L641.256 508.703" stroke="#E0E0E0" stroke-width="8" stroke-miterlimit="10"/>
<path d="M641.557 237.343H241.396V252.933H641.557V237.343Z" fill="#E0E0E0"/>
<path d="M400.947 233.666H344.657C342.099 233.666 340.026 235.739 340.026 238.297V238.297C340.026 240.854 342.099 242.927 344.657 242.927H400.947C403.505 242.927 405.578 240.854 405.578 238.297C405.578 235.739 403.505 233.666 400.947 233.666Z" fill="#535461"/>
<g opacity="0.7">
<path opacity="0.7" d="M522.747 130.417H400.035C388.93 130.417 379.927 139.417 379.927 150.52V222.94C379.927 234.042 388.93 243.042 400.035 243.042H522.747C533.852 243.042 542.854 234.042 542.854 222.94V150.52C542.854 139.417 533.852 130.417 522.747 130.417Z" fill="url(#paint3_linear)"/>
</g>
<path d="M518.051 132.495H401.953C391.393 132.495 382.832 141.054 382.832 151.611V223.926C382.832 234.484 391.393 243.042 401.953 243.042H518.051C528.612 243.042 537.172 234.484 537.172 223.926V151.611C537.172 141.054 528.612 132.495 518.051 132.495Z" fill="#3E3F49"/>
<path d="M520.189 132.495H404.09C393.53 132.495 384.97 141.054 384.97 151.611V223.926C384.97 234.484 393.53 243.042 404.09 243.042H520.189C530.749 243.042 539.31 234.484 539.31 223.926V151.611C539.31 141.054 530.749 132.495 520.189 132.495Z" fill="#535461"/>
<path d="M469.35 191.993C472.104 191.993 474.337 189.76 474.337 187.006C474.337 184.252 472.104 182.02 469.35 182.02C466.595 182.02 464.362 184.252 464.362 187.006C464.362 189.76 466.595 191.993 469.35 191.993Z" fill="#E0E0E0"/>
</g>
<defs>
<linearGradient id="paint0_linear" x1="579.877" y1="238.586" x2="579.877" y2="195.123" gradientUnits="userSpaceOnUse">
<stop stop-color="#808080" stop-opacity="0.25"/>
<stop offset="0.53514" stop-color="#808080" stop-opacity="0.12"/>
<stop offset="1" stop-color="#808080" stop-opacity="0.1"/>
</linearGradient>
<linearGradient id="paint1_linear" x1="126818" y1="439249" x2="126818" y2="40450.7" gradientUnits="userSpaceOnUse">
<stop stop-color="#808080" stop-opacity="0.25"/>
<stop offset="0.53514" stop-color="#808080" stop-opacity="0.12"/>
<stop offset="1" stop-color="#808080" stop-opacity="0.1"/>
</linearGradient>
<linearGradient id="paint2_linear" x1="1907.69" y1="1331.69" x2="1907.69" y2="1325.28" gradientUnits="userSpaceOnUse">
<stop stop-color="#808080" stop-opacity="0.25"/>
<stop offset="0.53514" stop-color="#808080" stop-opacity="0.12"/>
<stop offset="1" stop-color="#808080" stop-opacity="0.1"/>
</linearGradient>
<linearGradient id="paint3_linear" x1="105881" y1="38555.7" x2="105881" y2="20749.5" gradientUnits="userSpaceOnUse">
<stop stop-color="#808080" stop-opacity="0.25"/>
<stop offset="0.53514" stop-color="#808080" stop-opacity="0.12"/>
<stop offset="1" stop-color="#808080" stop-opacity="0.1"/>
</linearGradient>
<clipPath id="clip0">
<rect width="644" height="533" fill="white"/>
</clipPath>
</defs>
</svg>
