<svg width="589" height="513" viewBox="0 0 589 513" fill="none" xmlns="http://www.w3.org/2000/svg">
<path d="M265.132 513C354.791 513 427.474 509.346 427.474 504.838C427.474 500.33 354.791 496.676 265.132 496.676C175.473 496.676 102.789 500.33 102.789 504.838C102.789 509.346 175.473 513 265.132 513Z" fill="#E6E6E6"/>
<path d="M80.5623 161.21C125.056 161.21 161.125 125.122 161.125 80.6048C161.125 36.088 125.056 0 80.5623 0C36.069 0 0 36.088 0 80.6048C0 125.122 36.069 161.21 80.5623 161.21Z" fill="#E6E6E6"/>
<path d="M80.5623 147.775C117.64 147.775 147.698 117.702 147.698 80.6047C147.698 43.5074 117.64 13.4341 80.5623 13.4341C43.4845 13.4341 13.4271 43.5074 13.4271 80.6047C13.4271 117.702 43.4845 147.775 80.5623 147.775Z" fill="#A8050A"/>
<path d="M294.5 161.21C338.993 161.21 375.062 125.122 375.062 80.6048C375.062 36.088 338.993 0 294.5 0C250.007 0 213.938 36.088 213.938 80.6048C213.938 125.122 250.007 161.21 294.5 161.21Z" fill="#E6E6E6"/>
<path d="M294.5 147.775C331.578 147.775 361.635 117.702 361.635 80.6047C361.635 43.5074 331.578 13.4341 294.5 13.4341C257.422 13.4341 227.365 43.5074 227.365 80.6047C227.365 117.702 257.422 147.775 294.5 147.775Z" fill="white"/>
<path d="M508.438 161.21C552.931 161.21 589 125.122 589 80.6048C589 36.088 552.931 0 508.438 0C463.944 0 427.875 36.088 427.875 80.6048C427.875 125.122 463.944 161.21 508.438 161.21Z" fill="#E6E6E6"/>
<path d="M508.438 147.775C545.515 147.775 575.573 117.702 575.573 80.6047C575.573 43.5074 545.515 13.4341 508.438 13.4341C471.36 13.4341 441.302 43.5074 441.302 80.6047C441.302 117.702 471.36 147.775 508.438 147.775Z" fill="white"/>
<path d="M74.3355 108.203L54.777 83.043L66.1507 74.1911L75.4116 86.1046L106.696 53.0632L117.157 62.9795L74.3355 108.203Z" fill="white"/>
<path d="M223.317 97.041C218.027 84.2559 217.168 72.1894 224.626 61.4711C224.758 57.8696 225.612 54.3314 227.137 51.0664C228.662 47.8014 230.827 44.876 233.504 42.4639C236.18 40.0518 239.313 38.202 242.717 37.0243C246.122 35.8466 249.728 35.3649 253.321 35.6079L258.184 35.9366C263.205 36.2628 268.032 37.9965 272.113 40.9392C276.195 43.8819 279.366 47.9148 281.264 52.5764C290.332 75.0778 290.617 104.983 288.354 137.037H221.846C225.796 122.047 227.824 107.978 223.317 97.041Z" fill="#2F2E41"/>
<path d="M137.429 136.267L119.854 128.368C118.103 127.581 116.541 126.427 115.275 124.983C114.008 123.539 113.067 121.84 112.515 120C111.962 118.161 111.812 116.224 112.073 114.321C112.334 112.418 113.001 110.593 114.029 108.971C115.165 107.177 116.712 105.679 118.541 104.6C120.37 103.521 122.429 102.893 124.548 102.767C126.667 102.641 128.786 103.021 130.73 103.876C132.674 104.73 134.386 106.035 135.727 107.682L143.847 117.657L181.701 151.248L206.864 134.447L218.269 153.792L177.451 178.462L137.429 136.267Z" fill="#9F616A"/>
<path d="M216.436 159.483L202.56 132.918L256.591 108.839L257.059 113.92C257.489 118.596 256.691 123.303 254.743 127.575C252.795 131.847 249.764 135.535 245.952 138.274L216.436 159.483Z" fill="#A8050A"/>
<path d="M286.454 107.251L231.347 152.881L228.18 148.445L243.382 121.194L250.349 118.025C252.019 110.949 247.757 101.459 242.115 91.4077L268.718 87.6052C270.002 96.2381 275.85 102.816 286.454 107.251Z" fill="#9F616A"/>
<path d="M352.962 422.223L343.778 435.848L270.619 394.338L280.753 344.272L352.962 422.223Z" fill="#2F2E41"/>
<path d="M256.367 487.182L241.482 480.527L237.681 306.247L223.429 211.502L278.853 201.046L290.254 225.762C318.273 264.21 277.428 382.018 256.367 487.182Z" fill="#2F2E41"/>
<path d="M257.567 484.814L260.621 491.465C261.195 492.714 261.469 494.081 261.422 495.455C261.375 496.83 261.008 498.174 260.35 499.382C259.692 500.59 258.762 501.627 257.632 502.411C256.503 503.195 255.206 503.705 253.846 503.9L213.466 509.671C211.48 509.955 209.46 509.51 207.777 508.418C206.094 507.326 204.864 505.662 204.313 503.733C203.806 501.956 203.905 500.062 204.595 498.348C205.285 496.635 206.526 495.201 208.123 494.272L242.046 477.284L257.567 484.814Z" fill="#2F2E41"/>
<path d="M351.071 419.648L358.367 419.112C359.738 419.011 361.114 419.232 362.384 419.757C363.655 420.282 364.785 421.097 365.686 422.136C366.586 423.175 367.232 424.41 367.571 425.743C367.91 427.076 367.934 428.47 367.64 429.813L358.916 469.68C358.488 471.64 357.364 473.379 355.753 474.574C354.142 475.769 352.153 476.34 350.154 476.182C348.313 476.036 346.574 475.28 345.211 474.033C343.848 472.787 342.94 471.122 342.629 469.301L338.592 431.561L351.071 419.648Z" fill="#2F2E41"/>
<path d="M251.616 100.28C265.609 100.28 276.953 88.9307 276.953 74.9304C276.953 60.9301 265.609 49.5806 251.616 49.5806C237.623 49.5806 226.28 60.9301 226.28 74.9304C226.28 88.9307 237.623 100.28 251.616 100.28Z" fill="#9F616A"/>
<path d="M277.586 204.848L222.479 216.255L221.212 179.498C213.233 171.046 231.843 137.193 238.314 121.194L246.549 118.659L232.614 144.009L281.386 104.083L290.888 106.618L293.421 152.881L277.586 204.848Z" fill="#A8050A"/>
<path d="M281.386 227.029L269.436 242.151C268.245 243.658 266.745 244.891 265.036 245.766C263.328 246.642 261.451 247.14 259.533 247.226C257.615 247.313 255.701 246.986 253.921 246.267C252.14 245.549 250.535 244.456 249.214 243.062C247.752 241.521 246.678 239.655 246.08 237.617C245.481 235.579 245.376 233.428 245.771 231.341C246.167 229.254 247.053 227.291 248.356 225.614C249.659 223.937 251.342 222.594 253.266 221.696L264.918 216.256L306.723 187.737L296.588 159.219L318.124 152.881L332.059 198.511L281.386 227.029Z" fill="#9F616A"/>
<path d="M283.603 131.967H237.699C239.424 123.286 244.048 115.411 256.694 109.764C265.915 92.1314 269.854 76.138 256.694 65.4516C241.662 61.9868 235.84 55.695 237.699 47.0456L264.608 42.6094C286.738 62.3281 286.99 95.9879 283.603 131.967Z" fill="#2F2E41"/>
<path d="M323.192 156.05L294.055 163.021L283.92 104.716L288.959 105.504C293.596 106.229 297.963 108.154 301.627 111.088C305.292 114.022 308.126 117.863 309.849 122.231L323.192 156.05Z" fill="#A8050A"/>
</svg>
